<?xml version="1.0" encoding="UTF-8" standalone="no"?>
<!-- Created with Inkscape (http://www.inkscape.org/) -->

<svg
   xmlns:dc="http://purl.org/dc/elements/1.1/"
   xmlns:cc="http://creativecommons.org/ns#"
   xmlns:rdf="http://www.w3.org/1999/02/22-rdf-syntax-ns#"
   xmlns:svg="http://www.w3.org/2000/svg"
   xmlns="http://www.w3.org/2000/svg"
   xmlns:sodipodi="http://sodipodi.sourceforge.net/DTD/sodipodi-0.dtd"
   xmlns:inkscape="http://www.inkscape.org/namespaces/inkscape"
   version="1.1"
   id="svg2"
   xml:space="preserve"
   width="383.78702"
   height="237.45625"
   viewBox="0 0 383.78702 237.45625"
   sodipodi:docname="gaussian-bm-relaxation-30-unit-scale-6-covariance-rmses.svg"
   inkscape:version="0.92.1 unknown"><metadata
     id="metadata8"><rdf:RDF><cc:Work
         rdf:about=""><dc:format>image/svg+xml</dc:format><dc:type
           rdf:resource="http://purl.org/dc/dcmitype/StillImage" /><dc:title></dc:title></cc:Work></rdf:RDF></metadata><defs
     id="defs6"><clipPath
       clipPathUnits="userSpaceOnUse"
       id="clipPath80"><path
         d="M 41.25,31.578125 H 278.1059 V 173.42813 H 41.25 Z"
         id="path78"
         inkscape:connector-curvature="0" /></clipPath><clipPath
       clipPathUnits="userSpaceOnUse"
       id="clipPath90"><path
         d="M 41.25,31.578125 H 278.1059 V 173.42813 H 41.25 Z"
         id="path88"
         inkscape:connector-curvature="0" /></clipPath><clipPath
       clipPathUnits="userSpaceOnUse"
       id="clipPath100"><path
         d="M 41.25,31.578125 H 278.1059 V 173.42813 H 41.25 Z"
         id="path98"
         inkscape:connector-curvature="0" /></clipPath><clipPath
       clipPathUnits="userSpaceOnUse"
       id="clipPath110"><path
         d="M 41.25,31.578125 H 278.1059 V 173.42813 H 41.25 Z"
         id="path108"
         inkscape:connector-curvature="0" /></clipPath><clipPath
       clipPathUnits="userSpaceOnUse"
       id="clipPath120"><path
         d="M 41.25,31.578125 H 278.1059 V 173.42813 H 41.25 Z"
         id="path118"
         inkscape:connector-curvature="0" /></clipPath><clipPath
       clipPathUnits="userSpaceOnUse"
       id="clipPath130"><path
         d="M 41.25,31.578125 H 278.1059 V 173.42813 H 41.25 Z"
         id="path128"
         inkscape:connector-curvature="0" /></clipPath><clipPath
       clipPathUnits="userSpaceOnUse"
       id="clipPath140"><path
         d="M 41.25,31.578125 H 278.1059 V 173.42813 H 41.25 Z"
         id="path138"
         inkscape:connector-curvature="0" /></clipPath><clipPath
       clipPathUnits="userSpaceOnUse"
       id="clipPath150"><path
         d="m -3.5,-3.5 h 7 v 7 h -7 z"
         id="path148"
         inkscape:connector-curvature="0" /></clipPath><clipPath
       clipPathUnits="userSpaceOnUse"
       id="clipPath162"><path
         d="m -3.5,-3.5 h 7 v 7 h -7 z"
         id="path160"
         inkscape:connector-curvature="0" /></clipPath><clipPath
       clipPathUnits="userSpaceOnUse"
       id="clipPath174"><path
         d="m -3.5,-3.5 h 7 v 7 h -7 z"
         id="path172"
         inkscape:connector-curvature="0" /></clipPath><clipPath
       clipPathUnits="userSpaceOnUse"
       id="clipPath184"><path
         d="M 41.25,31.578125 H 278.1059 V 173.42813 H 41.25 Z"
         id="path182"
         inkscape:connector-curvature="0" /></clipPath><clipPath
       clipPathUnits="userSpaceOnUse"
       id="clipPath194"><path
         d="M 41.25,31.578125 H 278.1059 V 173.42813 H 41.25 Z"
         id="path192"
         inkscape:connector-curvature="0" /></clipPath><clipPath
       clipPathUnits="userSpaceOnUse"
       id="clipPath204"><path
         d="M 41.25,31.578125 H 278.1059 V 173.42813 H 41.25 Z"
         id="path202"
         inkscape:connector-curvature="0" /></clipPath></defs><sodipodi:namedview
     pagecolor="#ffffff"
     bordercolor="#666666"
     borderopacity="1"
     objecttolerance="10"
     gridtolerance="10"
     guidetolerance="10"
     inkscape:pageopacity="0"
     inkscape:pageshadow="2"
     inkscape:window-width="1366"
     inkscape:window-height="695"
     id="namedview4"
     showgrid="false"
     inkscape:zoom="1.4142136"
     inkscape:cx="194.21021"
     inkscape:cy="128.86133"
     inkscape:window-x="0"
     inkscape:window-y="27"
     inkscape:window-maximized="1"
     inkscape:current-layer="g10" /><g
     id="g10"
     inkscape:groupmode="layer"
     inkscape:label="gaussian-bm-relaxation-30-unit-scale-6-covariance-rmses"
     transform="matrix(1.3333333,0,0,-1.3333333,0,237.45625)"><path
       d="M 0,0 H 287.84027 V 178.09219 H 0 Z"
       style="fill:#ffffff;fill-opacity:1;fill-rule:nonzero;stroke:none"
       id="path12"
       inkscape:connector-curvature="0" /><path
       d="M 41.25,31.578125 H 278.1059 V 173.42813 H 41.25 Z"
       style="fill:#ffffff;fill-opacity:1;fill-rule:nonzero;stroke:none"
       id="path14"
       inkscape:connector-curvature="0" /><text
       transform="matrix(1,0,0,-1,34.296875,17.328125)"
       style="font-variant:normal;font-weight:normal;font-size:10px;font-family:'Liberation Sans';-inkscape-font-specification:LiberationSans;writing-mode:lr-tb;fill:#000000;fill-opacity:1;fill-rule:nonzero;stroke:none"
       id="text18"><tspan
         x="0 5.5599999 8.3400002"
         y="0"
         sodipodi:role="line"
         id="tspan16"
         style="-inkscape-font-specification:'Libertinus Serif';font-family:'Libertinus Serif';font-weight:normal;font-style:normal;font-stretch:normal;font-variant:normal">0.0</tspan></text>
<text
       transform="matrix(1,0,0,-1,90.7296,17.328125)"
       style="font-variant:normal;font-weight:normal;font-size:10px;font-family:'Liberation Sans';-inkscape-font-specification:LiberationSans;writing-mode:lr-tb;fill:#000000;fill-opacity:1;fill-rule:nonzero;stroke:none"
       id="text22"><tspan
         x="0 5.5599999 11.12 13.9"
         y="0"
         sodipodi:role="line"
         id="tspan20"
         style="-inkscape-font-specification:'Libertinus Serif';font-family:'Libertinus Serif';font-weight:normal;font-style:normal;font-stretch:normal;font-variant:normal">20.0</tspan></text>
<text
       transform="matrix(1,0,0,-1,149.94357,17.328125)"
       style="font-variant:normal;font-weight:normal;font-size:10px;font-family:'Liberation Sans';-inkscape-font-specification:LiberationSans;writing-mode:lr-tb;fill:#000000;fill-opacity:1;fill-rule:nonzero;stroke:none"
       id="text26"><tspan
         x="0 5.5599999 11.12 13.9"
         y="0"
         sodipodi:role="line"
         id="tspan24"
         style="-inkscape-font-specification:'Libertinus Serif';font-family:'Libertinus Serif';font-weight:normal;font-style:normal;font-stretch:normal;font-variant:normal">40.0</tspan></text>
<text
       transform="matrix(1,0,0,-1,209.15755,17.328125)"
       style="font-variant:normal;font-weight:normal;font-size:10px;font-family:'Liberation Sans';-inkscape-font-specification:LiberationSans;writing-mode:lr-tb;fill:#000000;fill-opacity:1;fill-rule:nonzero;stroke:none"
       id="text30"><tspan
         x="0 5.5599999 11.12 13.9"
         y="0"
         sodipodi:role="line"
         id="tspan28"
         style="-inkscape-font-specification:'Libertinus Serif';font-family:'Libertinus Serif';font-weight:normal;font-style:normal;font-stretch:normal;font-variant:normal">60.0</tspan></text>
<text
       transform="matrix(1,0,0,-1,268.37152,17.328125)"
       style="font-variant:normal;font-weight:normal;font-size:10px;font-family:'Liberation Sans';-inkscape-font-specification:LiberationSans;writing-mode:lr-tb;fill:#000000;fill-opacity:1;fill-rule:nonzero;stroke:none"
       id="text34"><tspan
         x="0 5.5599999 11.12 13.9"
         y="0"
         sodipodi:role="line"
         id="tspan32"
         style="-inkscape-font-specification:'Libertinus Serif';font-family:'Libertinus Serif';font-weight:normal;font-style:normal;font-stretch:normal;font-variant:normal">80.0</tspan></text>
<text
       transform="matrix(1,0,0,-1,140.10764,2.28125)"
       style="font-variant:normal;font-weight:normal;font-size:11px;font-family:'Liberation Sans';-inkscape-font-specification:LiberationSans;writing-mode:lr-tb;fill:#000000;fill-opacity:1;fill-rule:nonzero;stroke:none"
       id="text38"><tspan
         sodipodi:role="line"
         id="tspan36"
         x="0"
         y="0"
         style="-inkscape-font-specification:'Libertinus Serif';font-family:'Libertinus Serif';font-weight:normal;font-style:normal;font-stretch:normal;font-variant:normal">Time / s</tspan></text>
<g
       id="g40"
       transform="translate(15.25,28.992187)"><text
         transform="matrix(1,0,0,-1,0,0.8109375)"
         style="font-variant:normal;font-weight:normal;font-size:10px;font-family:'Liberation Sans';-inkscape-font-specification:LiberationSans;writing-mode:lr-tb;fill:#000000;fill-opacity:1;fill-rule:nonzero;stroke:none"
         id="text44"><tspan
           x="0 5.5615234"
           y="0"
           sodipodi:role="line"
           id="tspan42"
           style="-inkscape-font-specification:'Liberation Serif';font-family:'Liberation Serif';font-weight:normal;font-style:normal;font-stretch:normal;font-variant:normal">10</tspan></text>
<text
         transform="matrix(1,0,0,-1,11.400313,3.1875)"
         style="font-variant:normal;font-weight:normal;font-size:7px;font-family:'Liberation Sans';-inkscape-font-specification:LiberationSans;writing-mode:lr-tb;fill:#000000;fill-opacity:1;fill-rule:nonzero;stroke:none"
         id="text48"><tspan
           x="0"
           sodipodi:role="line"
           id="tspan46"
           y="0"
           style="-inkscape-font-specification:'Libertinus Serif';font-family:'Libertinus Serif';font-weight:normal;font-style:normal;font-stretch:normal;font-variant:normal">-1</tspan></text>
</g><g
       id="g50"
       transform="translate(18.25,99.917188)"><text
         transform="matrix(1,0,0,-1,0,0.734375)"
         style="font-variant:normal;font-weight:normal;font-size:10px;font-family:'Liberation Sans';-inkscape-font-specification:LiberationSans;writing-mode:lr-tb;fill:#000000;fill-opacity:1;fill-rule:nonzero;stroke:none"
         id="text54"><tspan
           x="0 5.5615234"
           y="0"
           sodipodi:role="line"
           id="tspan52"
           style="-inkscape-font-specification:'Liberation Serif';font-family:'Liberation Serif';font-weight:normal;font-style:normal;font-stretch:normal;font-variant:normal">10</tspan></text>
<text
         transform="matrix(1,0,0,-1,11.400313,3.1109375)"
         style="font-variant:normal;font-weight:normal;font-size:7px;font-family:'Liberation Sans';-inkscape-font-specification:LiberationSans;writing-mode:lr-tb;fill:#000000;fill-opacity:1;fill-rule:nonzero;stroke:none"
         id="text58"><tspan
           x="0"
           y="0"
           id="tspan56"
           style="-inkscape-font-specification:'Liberation Serif';font-family:'Liberation Serif';font-weight:normal;font-style:normal;font-stretch:normal;font-variant:normal">0</tspan></text>
</g><g
       id="g60"
       transform="translate(18.25,170.84219)"><text
         transform="matrix(1,0,0,-1,0,0.8109375)"
         style="font-variant:normal;font-weight:normal;font-size:10px;font-family:'Liberation Sans';-inkscape-font-specification:LiberationSans;writing-mode:lr-tb;fill:#000000;fill-opacity:1;fill-rule:nonzero;stroke:none"
         id="text64"><tspan
           x="0"
           sodipodi:role="line"
           id="tspan62"
           style="font-style:normal;font-variant:normal;font-weight:normal;font-stretch:normal;font-family:'Libertinus Serif';-inkscape-font-specification:'Libertinus Serif'"
           y="0">10</tspan></text>
<text
         transform="matrix(1,0,0,-1,11.400313,3.1875)"
         style="font-variant:normal;font-weight:normal;font-size:7px;font-family:'Liberation Sans';-inkscape-font-specification:LiberationSans;writing-mode:lr-tb;fill:#000000;fill-opacity:1;fill-rule:nonzero;stroke:none"
         id="text68"><tspan
           x="0"
           y="0"
           id="tspan66"
           style="-inkscape-font-specification:'Libertinus Serif';font-family:'Libertinus Serif';font-weight:normal;font-style:normal;font-stretch:normal;font-variant:normal">1</tspan></text>
</g><text
       transform="matrix(0,1,1,0,7.96875,65.198437)"
       style="font-variant:normal;font-weight:normal;font-size:11px;font-family:'Liberation Sans';-inkscape-font-specification:LiberationSans;writing-mode:lr-tb;fill:#000000;fill-opacity:1;fill-rule:nonzero;stroke:none"
       id="text72"><tspan
         sodipodi:role="line"
         id="tspan70"
         style="font-style:normal;font-variant:normal;font-weight:normal;font-stretch:normal;font-family:'Libertinus Serif';-inkscape-font-specification:'Libertinus Serif'"
         x="0"
         y="0">Relative RMSE</tspan></text>
<g
       id="g74"><g
         id="g76"
         clip-path="url(#clipPath80)"><path
           d="m 41.25,142.36989 v -5.89997 l 2.617922,-29.5159 2.617922,-4.56779 2.617922,-3.418188 2.617922,-1.579761 2.617921,-1.822334 2.617922,-1.486021 2.617922,-1.216555 2.617922,-2.122513 2.617922,-1.819304 2.617922,-0.946402 2.617922,-0.943074 2.617922,-0.47903 2.617922,-0.917242 2.617921,-0.456673 2.617922,-0.857282 2.617922,-0.62908 2.617922,-0.911195 2.617922,-0.902217 2.617922,-1.044155 2.617922,-0.783978 2.617922,-0.529616 2.617922,-0.390139 2.617918,-0.486897 2.61793,-0.658294 2.61792,-0.498562 2.61792,-0.643034 2.61792,-0.337105 2.61792,-0.536454 2.61792,-0.56364 2.61793,-0.480005 2.61792,0.318802 2.61792,-0.266416 2.61792,-0.419081 2.61792,-0.4784 2.61793,-0.460591 2.61792,-0.344245 2.61792,-0.576668 2.61792,-0.613764 2.61792,-0.483156 2.61793,-0.490919 2.61792,-0.39395 2.61792,-0.586414 2.61792,-0.517011 2.61792,-0.396818 2.61792,-0.525564 2.61793,-0.646027 2.61792,-0.623598 2.61792,-0.50254 2.61792,-0.488739 2.61792,-0.312123 2.61793,-0.338895 2.61792,-0.241306 2.61792,-0.380728 2.61792,-0.310235 2.61792,-0.292217 2.61793,-0.180957 2.61792,-0.262673 2.61792,-0.236691 2.61792,-0.06868 2.61792,-0.08544 2.61792,-0.184306 2.61793,-0.120818 2.61792,-0.219185 2.61792,-0.443791 2.61792,-0.303436 2.61792,-0.253699 2.61793,-0.23576 2.61792,-0.258811 2.61792,-0.0951 2.61792,-0.426692 2.61792,-0.198257 2.61793,-0.210831 2.61792,-0.306149 2.61792,-0.1917 2.61792,-0.176791 2.61792,-0.09546 2.61793,-0.268318 2.61792,-0.370885 2.61792,-0.320319 2.61792,-0.269696 2.61792,-0.129748 2.61792,-0.01576 2.61793,-0.0098 2.61792,-0.181765 2.61792,-0.118599 2.61792,-0.16509 2.61792,0.01354 2.61793,-0.225367 2.61792,-0.256476 2.61792,-0.240372 2.61792,-0.100523 2.61792,-0.01511 2.61793,-0.130392 2.61792,-0.15858 2.61792,-0.02629 2.61792,-0.174592 2.61792,-0.134416 2.61792,-0.02926 2.61793,-0.01096 v 8.48586 0 l -2.61793,0.05021 -2.61792,-0.01819 -2.61792,0.08397 -2.61792,0.07774 -2.61792,0.02264 -2.61792,0.133305 -2.61793,0.07583 -2.61792,0.01721 -2.61792,0.06117 -2.61792,0.186742 -2.61792,0.212145 -2.61793,0.217531 -2.61792,0.100924 -2.61792,0.208879 -2.61792,0.149886 -2.61792,0.230535 -2.61793,0.126904 -2.61792,0.07972 -2.61792,0.183697 -2.61792,0.255637 -2.61792,0.350996 -2.61792,0.336969 -2.61793,0.17878 -2.61792,0.0072 -2.61792,0.134081 -2.61792,0.213138 -2.61792,0.288992 -2.61793,0.202289 -2.61792,0.176953 -2.61792,0.403609 -2.61792,0.107949 -2.61792,0.212253 -2.61793,0.251208 -2.61792,0.237673 -2.61792,0.281146 -2.61792,0.376854 -2.61792,0.291691 -2.61793,0.21039 -2.61792,0.216218 -2.61792,0.02725 -2.61792,0.04691 -2.61792,0.170821 -2.61792,0.166064 -2.61793,0.110439 -2.61792,0.197994 -2.61792,0.202406 -2.61792,0.29106 -2.61792,0.221932 -2.61793,0.258867 -2.61792,0.269638 -2.61792,0.435885 -2.61792,0.47094 -2.61792,0.666042 -2.61793,0.634293 -2.61792,0.504344 -2.61792,0.329394 -2.61792,0.541362 -2.61792,0.503967 -2.61792,0.265749 -2.61793,0.435429 -2.61792,0.502424 -2.61792,0.583134 -2.61792,0.640006 -2.61792,0.267013 -2.61793,0.378406 -2.61792,0.489505 -2.61792,0.425266 -2.61792,0.51608 -2.61792,0.231134 -2.61793,0.585179 -2.61792,0.589268 -2.61792,0.469867 -2.61792,0.242817 -2.61792,0.622202 -2.61792,0.418782 -2.61793,0.475607 -2.617918,0.321628 -2.617922,0.397127 -2.617922,0.566642 -2.617922,0.834819 -2.617922,0.956799 -2.617922,0.762842 -2.617922,0.726329 -2.617922,0.478154 -2.617922,0.643131 -2.617921,0.212722 -2.617922,0.658515 -2.617922,0.263042 -2.617922,0.668785 -2.617922,1.011814 -2.617922,1.780011 -2.617922,1.845964 -2.617922,1.275605 -2.617922,1.447179 -2.617921,1.61933 -2.617922,1.75827 -2.617922,3.27437 -2.617922,4.3485 z"
           style="fill:#97a431;fill-opacity:0.2;fill-rule:nonzero;stroke:#000000;stroke-width:0.30000001;stroke-linecap:butt;stroke-linejoin:round;stroke-miterlimit:10;stroke-dasharray:none;stroke-opacity:0.2"
           id="path82"
           inkscape:connector-curvature="0" /></g></g><g
       id="g84"><g
         id="g86"
         clip-path="url(#clipPath90)"><path
           d="m 41.25,138.45849 v -4.14671 l 1.513757,-33.32283 1.513757,-4.053533 1.513757,-3.357244 1.513758,-2.78991 1.513757,-3.440877 1.513757,-1.574906 1.513757,-1.865806 1.513757,-1.068097 1.513757,-0.822642 1.513757,-1.272888 1.513757,-2.50458 1.513758,-2.165895 1.513757,-1.00081 1.513757,-1.143949 1.513757,-1.044999 1.513757,-0.369766 1.513757,-0.674 1.513757,-0.781295 1.513757,-0.373721 1.513758,-0.645597 1.513757,-0.458856 1.513757,-0.251251 1.513757,-0.683411 1.513757,-0.332045 1.513757,0.266899 1.513757,-0.173501 1.513757,-0.496363 1.513758,-0.33313 1.513757,-0.690827 1.513757,-0.543541 1.513757,-0.517454 1.513757,0.245227 1.513757,-0.08571 1.513757,0.06368 1.513758,0.133212 1.513757,-0.0083 1.513757,0.115247 1.513757,-0.01033 1.513759,-0.228926 1.51376,-0.182575 1.51375,-0.198937 1.51376,-0.432589 1.51376,0.02729 1.51375,0.06935 1.51376,-0.127554 1.51376,-0.211344 1.51376,-0.263045 1.51375,-0.159962 1.51376,-0.05084 1.51376,-0.06168 1.51375,-0.03035 1.51376,-0.217208 1.51376,0.03345 1.51376,0.04302 1.51375,-0.277701 1.51376,-0.473239 1.51376,-0.624221 1.51375,-0.679253 1.51376,-0.636954 1.51376,-0.526798 1.51375,-0.308769 1.51376,-0.324483 1.51376,-0.250904 1.51376,-0.145341 1.51375,-0.106454 1.51376,0.02711 1.51376,-0.412365 1.51375,-0.450641 1.51376,-0.400474 1.51376,-0.339129 1.51376,-0.287314 1.51375,-0.445611 1.51376,-0.177552 1.51376,-0.09562 1.51375,-0.156027 1.51376,-0.240608 1.51376,-0.299564 1.51376,-0.49301 1.51375,-0.135095 1.51376,-0.07558 1.51376,-0.105649 1.51375,-0.253534 1.51376,-0.278038 1.51376,0.09958 1.51376,0.0249 1.51375,-0.0028 1.51376,0.01817 1.51376,-0.207422 1.51375,-0.242234 1.51376,-0.07067 1.51376,-0.0063 1.51376,-0.02471 1.51375,-0.08337 1.51376,-0.287065 1.51376,-0.242535 1.51375,-0.0678 1.51376,-0.02573 1.51376,-0.245545 1.51376,-0.241253 1.51375,-0.07872 1.51376,0.02425 1.51376,-0.05626 1.51375,-0.157029 1.51376,-0.21689 1.51376,-0.471524 1.51376,-0.237703 1.51375,-0.268531 1.51376,-0.489082 1.51376,-0.358729 1.51375,-0.31015 1.51376,-0.216572 1.51376,-0.244671 1.51376,-0.101782 1.51375,0.08412 1.51376,0.208723 1.51376,0.174698 1.51375,0.29964 1.51376,0.36263 1.51376,0.231452 1.51375,0.270436 1.51376,0.188657 1.51376,0.207437 1.51376,0.205377 1.51375,0.189106 1.51376,0.194251 1.51376,0.140029 1.51375,0.07099 1.51376,0.02729 1.51376,-0.0177 1.51376,-0.05258 1.51375,0.02 1.51376,0.0829 1.51376,0.04975 1.51375,0.145649 1.51376,0.01793 1.51376,-0.01596 1.51376,0.0028 1.51375,0.01489 1.51376,0.05208 1.51376,0.07736 1.51375,0.09475 1.51376,0.134145 1.51376,0.07956 1.51376,-0.02485 1.51375,0.0086 1.51376,0.05344 1.51376,0.02612 1.51375,-0.11499 1.51376,-0.02287 v 10.076203 0 l -1.51376,0.091 -1.51375,0.07715 -1.51376,-0.141835 -1.51376,-0.120505 -1.51375,-0.06684 -1.51376,-0.03912 -1.51376,-0.103959 -1.51376,-0.175886 -1.51375,-0.129303 -1.51376,-0.08977 -1.51376,-0.05141 -1.51375,-0.07544 -1.51376,-0.04017 -1.51376,-0.04247 -1.51376,-0.08386 -1.51375,-0.176238 -1.51376,-0.245221 -1.51376,-0.18133 -1.51375,-0.100771 -1.51376,-0.04497 -1.51376,-0.05643 -1.51376,-0.08684 -1.51375,-0.129997 -1.51376,-0.217076 -1.51376,-0.331677 -1.51375,-0.351073 -1.51376,-0.240243 -1.51376,-0.303094 -1.51376,-0.262605 -1.51375,-0.350256 -1.51376,-0.247903 -1.51376,-0.367435 -1.51375,-0.250212 -1.51376,-0.125858 -1.51376,-0.256182 -1.51375,-0.0811 -1.51376,0.08246 -1.51376,0.119859 -1.51376,0.159002 -1.51375,0.195002 -1.51376,0.30967 -1.51376,0.423749 -1.51375,0.418249 -1.51376,0.316978 -1.51376,0.491604 -1.51376,0.242857 -1.51375,0.240144 -1.51376,0.160564 -1.51376,-0.01189 -1.51375,0.09281 -1.51376,0.249788 -1.51376,0.28297 -1.51376,0.09872 -1.51375,0.14076 -1.51376,0.246116 -1.51376,0.300706 -1.51375,0.0945 -1.51376,0.04444 -1.51376,1.9e-4 -1.51376,0.005 -1.51375,0.250107 -1.51376,0.160056 -1.51376,0.02981 -1.51375,-0.03073 -1.51376,-0.02654 -1.51376,-0.07866 -1.51376,0.284036 -1.51375,0.226772 -1.51376,0.02172 -1.51376,0.07401 -1.51375,0.206585 -1.51376,0.583163 -1.51376,0.349168 -1.51376,0.214905 -1.51375,0.273615 -1.51376,0.131455 -1.51376,0.253355 -1.51375,0.381348 -1.51376,0.313467 -1.51376,0.461945 -1.51376,0.456577 -1.51375,0.474528 -1.51376,0.408321 -1.51376,0.05135 -1.51375,0.158223 -1.51376,0.234445 -1.51376,0.234553 -1.51376,0.284645 -1.51375,0.332929 -1.51376,0.413041 -1.51376,0.639949 -1.51375,0.613996 -1.51376,0.536798 -1.51376,0.406143 -1.51375,0.178939 -1.51376,-0.09803 -1.51376,-0.07097 -1.51376,0.153621 -1.51375,-0.01973 -1.51376,0.04722 -1.51376,0.128745 -1.51375,0.187363 -1.51376,0.237599 -1.51376,0.202814 -1.51376,0.185194 -1.51375,-0.01332 -1.51376,0.0022 -1.51376,0.17229 -1.51375,0.105051 -1.51376,0.0652 -1.513759,0.118499 -1.513757,-0.02715 -1.513757,-0.241507 -1.513757,-0.09419 -1.513758,-0.263995 -1.513757,-0.120852 -1.513757,0.0086 -1.513757,-0.221042 -1.513757,0.293521 -1.513757,0.505561 -1.513757,0.456421 -1.513758,0.226647 -1.513757,0.637206 -1.513757,0.202944 -1.513757,-0.260463 -1.513757,0.288372 -1.513757,0.720673 -1.513757,0.324934 -1.513757,0.557068 -1.513758,0.75547 -1.513757,0.59293 -1.513757,0.949439 -1.513757,0.704702 -1.513757,0.663814 -1.513757,0.774842 -1.513757,0.949884 -1.513757,1.206616 -1.513758,2.209769 -1.513757,2.280552 -1.513757,1.317365 -1.513757,0.782205 -1.513757,0.914717 -1.513757,1.713021 -1.513757,1.373618 -1.513757,2.839227 -1.513758,2.755623 -1.513757,3.3259 -1.513757,3.80967 z"
           style="fill:#36ada4;fill-opacity:0.2;fill-rule:nonzero;stroke:#000000;stroke-width:0.30000001;stroke-linecap:butt;stroke-linejoin:round;stroke-miterlimit:10;stroke-dasharray:none;stroke-opacity:0.2"
           id="path92"
           inkscape:connector-curvature="0" /></g></g><g
       id="g94"><g
         id="g96"
         clip-path="url(#clipPath100)"><path
           d="m 41.25,136.85652 v -4.80324 l 1.721733,-35.281817 1.721733,-4.050077 1.721733,-5.463304 1.721733,-1.619039 1.721733,-2.168477 1.721733,-1.697297 1.721733,-0.348281 1.721733,-0.642178 1.721733,-1.103979 1.721733,-0.929888 1.721733,-1.015843 1.721733,-0.05048 1.721734,-0.239835 1.721733,-0.2085 1.721733,0.117614 1.721733,-0.451836 1.721733,-0.90594 1.721733,-1.018305 1.721733,-0.808424 1.721733,-0.99073 1.721733,-0.772275 1.721733,-0.568297 1.721733,-0.293596 1.721733,0.02493 1.721733,-0.02427 1.721733,-0.35703 1.721733,-0.09326 1.721733,-0.46245 1.721733,-0.517889 1.721733,-0.573333 1.721733,-0.816112 1.721733,-0.762634 1.721733,-0.774118 1.721733,-0.665816 1.721737,-0.599125 1.72173,-0.08797 1.72173,-0.169903 1.72174,-0.390115 1.72173,-0.398988 1.72173,-0.278097 1.72174,-0.445113 1.72173,-0.506122 1.72173,-0.45643 1.72173,-0.596756 1.72174,-0.512911 1.72173,-0.334092 1.72173,-0.278583 1.72174,-0.115628 1.72173,-0.319436 1.72173,-0.295326 1.72174,-0.164691 1.72173,-0.08872 1.72173,-0.04982 1.72173,-0.220162 1.72174,-0.330772 1.72173,-0.226225 1.72173,-0.06166 1.72174,0.07576 1.72173,-7.34e-4 1.72173,0.08547 1.72174,-0.276011 1.72173,-0.324901 1.72173,-0.23524 1.72173,-0.262846 1.72174,-0.253847 1.72173,-0.263228 1.72173,-0.0176 1.72174,0.05536 1.72173,-0.05144 1.72173,-0.23904 1.72174,-0.437206 1.72173,-0.422512 1.72173,-0.248161 1.72174,-0.28231 1.72173,-0.274609 1.72173,-0.196931 1.72173,-0.354083 1.72174,-0.376615 1.72173,-0.406791 1.72173,-0.246117 1.72174,-0.210376 1.72173,-0.06429 1.72173,-0.184161 1.72173,-0.07963 1.72174,-0.317135 1.72173,-0.1591 1.72173,-0.21442 1.72174,-0.265962 1.72173,-0.299172 1.72173,-0.218706 1.72174,-0.05911 1.72173,0.0047 1.72173,-0.118939 1.72174,-0.07032 1.72173,-0.131196 1.72173,-0.155724 1.72173,-0.167714 1.72174,-0.108385 1.72173,-0.107263 1.72173,0.114749 1.72174,-0.165611 1.72173,-0.230817 1.72173,-0.04098 1.72174,-0.08478 1.72173,-0.02114 1.72173,-0.09906 1.72173,-0.189394 1.72174,-0.225519 1.72173,-0.416531 1.72173,-0.06567 1.72174,-0.09744 1.72173,-0.01726 1.72173,0.0372 1.72174,0.0933 1.72173,0.09909 1.72173,0.116717 1.72174,0.08703 1.72173,0.09078 1.72173,0.04596 1.72173,0.07522 1.72174,0.225053 1.72173,0.06124 1.72173,0.05017 1.72174,0.135167 v 11.319651 0 l -1.72174,-0.226628 -1.72173,-0.259192 -1.72173,-0.356717 -1.72174,-0.369881 -1.72173,-0.326277 -1.72173,-0.198708 -1.72173,-0.198587 -1.72174,-0.215173 -1.72173,-0.239457 -1.72173,-0.252983 -1.72174,-0.162569 -1.72173,-0.08474 -1.72173,-0.04718 -1.72174,0.01766 -1.72173,-0.14093 -1.72173,0.330024 -1.72174,0.208529 -1.72173,0.150791 -1.72173,0.08715 -1.72173,0.05914 -1.72174,0.08212 -1.72173,0.103611 -1.72173,0.165516 -1.72174,0.208369 -1.72173,-0.03094 -1.72173,0.04025 -1.72174,0.187398 -1.72173,0.210185 -1.72173,0.139385 -1.72173,0.143217 -1.72174,0.07697 -1.72173,0.152679 -1.72173,0.119753 -1.72174,0.04476 -1.72173,0.192932 -1.72173,0.298241 -1.72174,0.285407 -1.72173,0.187759 -1.72173,0.226886 -1.72174,0.230423 -1.72173,0.118696 -1.72173,0.177835 -1.72173,0.07905 -1.72174,0.254377 -1.72173,0.296195 -1.72173,0.488218 -1.72174,0.433578 -1.72173,0.4043 -1.72173,0.24452 -1.72173,0.313555 -1.72174,0.303168 -1.72173,0.334224 -1.72173,0.38133 -1.72174,0.315321 -1.72173,0.266482 -1.72173,0.133801 -1.72174,0.08884 -1.72173,0.10324 -1.72173,0.289812 -1.72174,0.323455 -1.72173,0.268737 -1.72173,0.321536 -1.72173,0.42033 -1.72174,0.280208 -1.72173,-0.08398 -1.72173,-0.05735 -1.72174,-0.09794 -1.72173,0.105302 -1.72173,0.222748 -1.72174,0.2299 -1.72173,0.176396 -1.72173,0.0915 -1.72173,0.220767 -1.72174,0.1631 -1.72173,0.246313 -1.72173,0.274812 -1.72174,0.222311 -1.72173,0.319606 -1.72173,0.325336 -1.72174,0.439036 -1.72173,0.561417 -1.72173,0.514975 -1.72173,0.582976 -1.72174,0.399015 -1.72173,0.298456 -1.72173,0.343519 -1.72174,0.423175 -1.72173,0.29607 -1.72173,0.253445 -1.721737,0.56723 -1.721733,0.785241 -1.721733,0.739226 -1.721733,0.77624 -1.721733,0.827142 -1.721733,0.674736 -1.721733,0.368397 -1.721733,0.313512 -1.721733,0.08199 -1.721733,0.303138 -1.721733,0.137736 -1.721733,-0.05169 -1.721733,0.197472 -1.721733,0.429239 -1.721733,0.556117 -1.721733,0.771863 -1.721733,0.760997 -1.721733,0.902425 -1.721733,0.952653 -1.721733,0.761708 -1.721733,-0.02599 -1.721733,0.03935 -1.721734,0.03962 -1.721733,0.0176 -1.721733,0.650757 -1.721733,0.670525 -1.721733,0.877354 -1.721733,-0.35811 -1.721733,-0.5304 -1.721733,0.746106 -1.721733,1.469206 -1.721733,2.003204 -1.721733,6.308239 -1.721733,3.136782 z"
           style="fill:#a48cf4;fill-opacity:0.2;fill-rule:nonzero;stroke:#000000;stroke-width:0.30000001;stroke-linecap:butt;stroke-linejoin:round;stroke-miterlimit:10;stroke-dasharray:none;stroke-opacity:0.2"
           id="path102"
           inkscape:connector-curvature="0" /></g></g><g
       id="g104"><g
         id="g106"
         clip-path="url(#clipPath110)"><path
           d="m 63.277356,95.84912 v 6.10761"
           style="fill:none;stroke:#f77189;stroke-width:1.75;stroke-linecap:round;stroke-linejoin:round;stroke-miterlimit:10;stroke-dasharray:none;stroke-opacity:1"
           id="path112"
           inkscape:connector-curvature="0" /></g></g><g
       id="g114"><g
         id="g116"
         clip-path="url(#clipPath120)"><path
           d="m 152.1591,92.963892 v 8.513638"
           style="fill:none;stroke:#f77189;stroke-width:1.75;stroke-linecap:round;stroke-linejoin:round;stroke-miterlimit:10;stroke-dasharray:none;stroke-opacity:1"
           id="path122"
           inkscape:connector-curvature="0" /></g></g><g
       id="g124"><g
         id="g126"
         clip-path="url(#clipPath130)"><path
           d="M 261.38115,88.748089 V 97.33505"
           style="fill:none;stroke:#f77189;stroke-width:1.75;stroke-linecap:round;stroke-linejoin:round;stroke-miterlimit:10;stroke-dasharray:none;stroke-opacity:1"
           id="path132"
           inkscape:connector-curvature="0" /></g></g><g
       id="g134"><g
         id="g136"
         clip-path="url(#clipPath140)"><g
           id="g142"
           transform="translate(63.277356,98.902334)"><g
             id="g144"><g
               id="g146"
               clip-path="url(#clipPath150)"><path
                 d="m 0,-3.5 c 0.928211,0 1.81853,0.368782 2.474874,1.025126 C 3.131218,-1.81853 3.5,-0.928211 3.5,0 3.5,0.928211 3.131218,1.81853 2.474874,2.474874 1.81853,3.131218 0.928211,3.5 0,3.5 -0.928211,3.5 -1.81853,3.131218 -2.474874,2.474874 -3.131218,1.81853 -3.5,0.928211 -3.5,0 c 0,-0.928211 0.368782,-1.81853 1.025126,-2.474874 C -1.81853,-3.131218 -0.928211,-3.5 0,-3.5 Z"
                 style="fill:#f77189;fill-opacity:1;fill-rule:nonzero;stroke:none"
                 id="path152"
                 inkscape:connector-curvature="0" /></g></g><g
             id="g154"
             transform="translate(88.881745,-1.7750923)"><g
               id="g156"><g
                 id="g158"
                 clip-path="url(#clipPath162)"><path
                   d="m 0,-3.5 c 0.928211,0 1.81853,0.368782 2.474874,1.025126 C 3.131218,-1.81853 3.5,-0.928211 3.5,0 3.5,0.928211 3.131218,1.81853 2.474874,2.474874 1.81853,3.131218 0.928211,3.5 0,3.5 -0.928211,3.5 -1.81853,3.131218 -2.474874,2.474874 -3.131218,1.81853 -3.5,0.928211 -3.5,0 c 0,-0.928211 0.368782,-1.81853 1.025126,-2.474874 C -1.81853,-3.131218 -0.928211,-3.5 0,-3.5 Z"
                   style="fill:#f77189;fill-opacity:1;fill-rule:nonzero;stroke:none"
                   id="path164"
                   inkscape:connector-curvature="0" /></g></g><g
               id="g166"
               transform="translate(109.22205,-4.0131233)"><g
                 id="g168"><g
                   id="g170"
                   clip-path="url(#clipPath174)"><path
                     d="m 0,-3.5 c 0.928211,0 1.81853,0.368782 2.474874,1.025126 C 3.131218,-1.81853 3.5,-0.928211 3.5,0 3.5,0.928211 3.131218,1.81853 2.474874,2.474874 1.81853,3.131218 0.928211,3.5 0,3.5 -0.928211,3.5 -1.81853,3.131218 -2.474874,2.474874 -3.131218,1.81853 -3.5,0.928211 -3.5,0 c 0,-0.928211 0.368782,-1.81853 1.025126,-2.474874 C -1.81853,-3.131218 -0.928211,-3.5 0,-3.5 Z"
                     style="fill:#f77189;fill-opacity:1;fill-rule:nonzero;stroke:none"
                     id="path176"
                     inkscape:connector-curvature="0" /></g></g></g></g></g></g></g><g
       id="g178"><g
         id="g180"
         clip-path="url(#clipPath184)"><path
           d="m 41.25,139.32622 2.617922,-29.68083 2.617922,-4.44194 2.617922,-3.33281 2.617922,-1.72474 2.617921,-1.732013 2.617922,-1.440591 2.617922,-1.245298 2.617922,-1.931497 2.617922,-1.785735 2.617922,-1.019354 2.617922,-0.800992 2.617922,-0.341881 2.617922,-0.787906 2.617921,-0.360573 2.617922,-0.754964 2.617922,-0.531493 2.617922,-0.849963 2.617922,-0.814676 2.617922,-0.985881 2.617922,-0.791228 2.617922,-0.533371 2.617922,-0.397819 2.617918,-0.391395 2.61793,-0.575894 2.61792,-0.446529 2.61792,-0.640894 2.61792,-0.314402 2.61792,-0.503135 2.61792,-0.560853 2.61793,-0.520564 2.61792,-0.02342 2.61792,-0.388079 2.61792,-0.422113 2.61792,-0.463737 2.61793,-0.404441 2.61792,-0.316272 2.61792,-0.634537 2.61792,-0.605468 2.61792,-0.500547 2.61793,-0.461237 2.61792,-0.333631 2.61792,-0.551639 2.61792,-0.548298 2.61792,-0.384471 2.61792,-0.513734 2.61793,-0.626237 2.61792,-0.642925 2.61792,-0.486399 2.61792,-0.478028 2.61792,-0.296677 2.61793,-0.289719 2.61792,-0.240819 2.61792,-0.336419 2.61792,-0.251118 2.61792,-0.255974 2.61793,-0.128328 2.61792,-0.202443 2.61792,-0.195265 2.61792,-0.07353 2.61792,-0.05179 2.61792,-0.18488 2.61793,-0.171048 2.61792,-0.27803 2.61792,-0.418101 2.61792,-0.293992 2.61792,-0.251179 2.61793,-0.218012 2.61792,-0.236038 2.61792,-0.105845 2.61792,-0.403253 2.61792,-0.190754 2.61793,-0.201443 2.61792,-0.261926 2.61792,-0.211517 2.61792,-0.155901 2.61792,-0.05993 2.61793,-0.194636 2.61792,-0.378039 2.61792,-0.365783 2.61792,-0.259213 2.61792,-0.167497 2.61792,-0.07244 2.61793,-0.05554 2.61792,-0.189409 2.61792,-0.103011 2.61792,-0.164544 2.61792,-0.05354 2.61793,-0.225792 2.61792,-0.242543 2.61792,-0.203323 2.61792,-0.06505 2.61792,-0.01426 2.61793,-0.09431 2.61792,-0.147302 1.50561,-0.0229"
           style="fill:none;stroke:#97a431;stroke-width:1.75;stroke-linecap:butt;stroke-linejoin:round;stroke-miterlimit:10;stroke-dasharray:6, 6;stroke-dashoffset:0;stroke-opacity:1"
           id="path186"
           inkscape:connector-curvature="0" /></g></g><g
       id="g188"><g
         id="g190"
         clip-path="url(#clipPath194)"><path
           d="m 41.25,136.41878 1.513757,-32.23946 1.513757,-3.84788 1.513757,-3.376583 1.513758,-2.780888 1.513757,-3.099979 1.513757,-1.449905 1.513757,-1.808865 1.513757,-0.961137 1.513757,-0.809825 1.513757,-1.317574 1.513757,-2.442581 1.513758,-2.187436 3.027514,-2.125743 1.513757,-0.922313 1.513757,-0.509069 1.513757,-0.69748 1.513757,-0.865895 1.513757,-0.518544 1.513758,-0.709058 1.513757,-0.491329 1.513757,-0.282794 1.513757,-0.685585 1.513757,-0.295749 1.513757,0.242981 1.513757,-0.181135 1.513757,-0.573044 1.513758,-0.309306 3.027514,-1.086827 1.513757,-0.388472 1.513757,0.217513 3.027514,0.01238 1.513758,0.196936 1.513757,0.03699 1.513757,0.197007 1.513757,-0.01994 7.568789,-0.729124 1.51375,0.05186 3.02752,-0.378556 3.02751,-0.401371 6.05503,-0.307681 3.02752,0.128227 1.51375,-0.251036 1.51376,-0.457509 6.05503,-2.271849 3.02751,-0.645646 3.02752,-0.471754 3.02751,-0.151732 9.08254,-2.434248 1.51376,-0.219549 3.02751,-0.289324 3.02752,-0.560413 1.51376,-0.543997 3.02751,-0.256637 1.51376,-0.04857 3.02751,-0.522793 3.02752,0.128273 3.02751,0.01416 4.54127,-0.444966 4.54127,-0.143712 3.02752,-0.55127 3.02751,-0.164741 3.02752,-0.514309 6.05502,-0.39491 1.51376,-0.231307 1.51376,-0.442719 3.02751,-0.63684 3.02752,-0.799739 3.02751,-0.438965 3.02752,-0.260583 1.51375,0.09242 7.56879,1.245567 3.02751,0.570557 6.05503,1.012329 3.02751,0.273673 4.54128,0.104731 3.02751,0.146731 4.54127,0.399359 6.05503,0.137622 7.56879,0.457034 6.05502,0.127403 1.51376,-0.0549 v 0"
           style="fill:none;stroke:#36ada4;stroke-width:1.75;stroke-linecap:butt;stroke-linejoin:round;stroke-miterlimit:10;stroke-dasharray:1, 3;stroke-dashoffset:0;stroke-opacity:1"
           id="path196"
           inkscape:connector-curvature="0" /></g></g><g
       id="g198"><g
         id="g200"
         clip-path="url(#clipPath204)"><path
           d="m 41.25,134.44644 1.721733,-34.707195 1.721733,-3.582397 1.721733,-5.927654 1.721733,-1.747888 1.721733,-1.870453 1.721733,-1.178003 1.721733,0.0791 1.721733,-0.127855 1.721733,-1.024602 1.721733,-0.756442 1.721733,-0.823629 1.721733,-0.05753 1.721734,-0.09453 1.721733,-0.118809 1.721733,0.08035 1.721733,-0.621409 1.721733,-0.907844 1.721733,-0.971464 1.721733,-0.755419 1.721733,-0.86697 1.721733,-0.694628 1.721733,-0.47958 1.721733,-0.219235 1.721733,0.04309 1.721733,-0.09143 1.721733,-0.345766 1.721733,-0.07333 1.721733,-0.390452 1.721733,-0.47839 1.721733,-0.619749 1.721733,-0.795872 1.721733,-0.784129 1.721733,-0.77907 1.721733,-0.737338 1.721737,-0.58996 1.72173,-0.162869 1.72173,-0.221443 1.72174,-0.421441 1.72173,-0.333241 1.72173,-0.258274 1.72174,-0.459514 1.72173,-0.560608 1.72173,-0.490343 1.72173,-0.561432 1.72174,-0.481173 1.72173,-0.297989 1.72173,-0.300771 1.72174,-0.178101 1.72173,-0.284907 1.72173,-0.246041 1.72174,-0.144615 1.72173,-0.13684 1.72173,-0.09075 1.72173,-0.190917 1.72174,-0.264168 1.72173,-0.228769 1.72173,-0.108883 1.72174,0.08435 1.72173,0.0597 1.72173,0.08267 1.72174,-0.311349 1.72173,-0.382382 1.72173,-0.28798 1.72173,-0.260812 1.72174,-0.257372 1.72173,-0.249795 1.72173,-0.07382 1.72174,-0.04331 1.72173,-0.09437 1.72173,-0.233962 1.72174,-0.357533 1.72173,-0.400399 1.72173,-0.322085 1.72174,-0.276304 1.72173,-0.288376 1.72173,-0.238768 1.72173,-0.369896 1.72174,-0.406963 1.72173,-0.466189 1.72173,-0.277527 1.72174,-0.222272 1.72173,-0.04704 1.72173,-0.184642 1.72173,-0.08852 1.72174,-0.280861 1.72173,-0.195665 1.72173,-0.203157 1.72174,-0.249581 1.72173,-0.314857 1.72173,-0.20178 1.72174,-0.05287 1.72173,-0.05107 1.72173,-0.123477 1.72174,-0.0742 1.72173,-0.145107 1.72173,-0.153648 1.72173,-0.180907 1.72174,-0.16222 1.72173,-0.05644 1.72173,0.04712 1.72174,-0.17914 1.72173,-0.177937 1.72173,-0.08171 1.72174,-0.0769 1.72173,-0.03307 1.72173,-0.09393 1.72173,-0.174928 1.72174,-0.224544 1.72173,-0.36291 1.72173,0.009 1.72174,-0.05482 1.72173,0.01151 1.72173,0.08537 1.72174,0.106184 1.72173,0.204161 1.72173,0.125701 1.72174,0.123443 1.72173,0.137436 1.72173,0.09361 1.72173,0.21676 1.72174,0.264023 1.72173,0.19913 1.72173,0.145841 1.72174,0.184518"
           style="fill:none;stroke:#a48cf4;stroke-width:1.75;stroke-linecap:round;stroke-linejoin:round;stroke-miterlimit:10;stroke-dasharray:none;stroke-opacity:1"
           id="path206"
           inkscape:connector-curvature="0" /></g></g><g
       id="g208"><path
         d="M 41.25,173.42813 H 278.1059"
         style="fill:none;stroke:#262626;stroke-width:1.25;stroke-linecap:square;stroke-linejoin:miter;stroke-miterlimit:10;stroke-dasharray:none;stroke-opacity:1"
         id="path210"
         inkscape:connector-curvature="0" /><path
         d="M 278.1059,31.578125 V 173.42813"
         style="fill:none;stroke:#262626;stroke-width:1.25;stroke-linecap:square;stroke-linejoin:miter;stroke-miterlimit:10;stroke-dasharray:none;stroke-opacity:1"
         id="path212"
         inkscape:connector-curvature="0" /><path
         d="M 41.25,31.578125 H 278.1059"
         style="fill:none;stroke:#262626;stroke-width:1.25;stroke-linecap:square;stroke-linejoin:miter;stroke-miterlimit:10;stroke-dasharray:none;stroke-opacity:1"
         id="path214"
         inkscape:connector-curvature="0" /><path
         d="M 41.25,31.578125 V 173.42813"
         style="fill:none;stroke:#262626;stroke-width:1.25;stroke-linecap:square;stroke-linejoin:miter;stroke-miterlimit:10;stroke-dasharray:none;stroke-opacity:1"
         id="path216"
         inkscape:connector-curvature="0" /><path
         d="m 144.74652,157.17812 c 0.92821,0 1.81853,0.36879 2.47488,1.02513 0.65634,0.65634 1.02512,1.54666 1.02512,2.47487 0,0.92822 -0.36878,1.81853 -1.02512,2.47488 -0.65635,0.65634 -1.54667,1.02512 -2.47488,1.02512 -0.92821,0 -1.81853,-0.36878 -2.47487,-1.02512 -0.65634,-0.65635 -1.02513,-1.54666 -1.02513,-2.47488 0,-0.92821 0.36879,-1.81853 1.02513,-2.47487 0.65634,-0.65634 1.54666,-1.02513 2.47487,-1.02513 z"
         style="fill:#f77189;fill-opacity:1;fill-rule:nonzero;stroke:none"
         id="path218"
         inkscape:connector-curvature="0" /><text
         transform="matrix(1,0,0,-1,162.74652,157.17812)"
         style="font-style:normal;font-variant:normal;font-weight:normal;font-stretch:normal;font-size:10px;font-family:'Libertinus Serif';-inkscape-font-specification:'Libertinus Serif';writing-mode:lr-tb;fill:#000000;fill-opacity:1;fill-rule:nonzero;stroke:none"
         id="text222"><tspan
           sodipodi:role="line"
           id="tspan220"
           x="0"
           y="0">AIS</tspan></text>
<path
         d="m 134.74652,146.35 h 20"
         style="fill:none;stroke:#97a431;stroke-width:1.75;stroke-linecap:butt;stroke-linejoin:round;stroke-miterlimit:10;stroke-dasharray:6, 6;stroke-dashoffset:0;stroke-opacity:1"
         id="path224"
         inkscape:connector-curvature="0" /><text
         transform="matrix(1,0,0,-1,162.74652,142.85)"
         style="font-style:normal;font-variant:normal;font-weight:normal;font-stretch:normal;font-size:10px;font-family:'Libertinus Serif';-inkscape-font-specification:'Libertinus Serif';writing-mode:lr-tb;fill:#000000;fill-opacity:1;fill-rule:nonzero;stroke:none"
         id="text228"><tspan
           sodipodi:role="line"
           id="tspan226"
           x="0"
           y="0">ST</tspan></text>
<path
         d="m 198.87152,160.67812 h 20"
         style="fill:none;stroke:#36ada4;stroke-width:1.75;stroke-linecap:butt;stroke-linejoin:round;stroke-miterlimit:10;stroke-dasharray:1, 3;stroke-dashoffset:0;stroke-opacity:1"
         id="path230"
         inkscape:connector-curvature="0" /><text
         transform="matrix(1,0,0,-1,226.87152,157.17812)"
         style="font-style:normal;font-variant:normal;font-weight:normal;font-stretch:normal;font-size:10px;font-family:'Libertinus Serif';-inkscape-font-specification:'Libertinus Serif';writing-mode:lr-tb;fill:#000000;fill-opacity:1;fill-rule:nonzero;stroke:none"
         id="text234"><tspan
           sodipodi:role="line"
           id="tspan232"
           x="0"
           y="0">Gibbs CT</tspan></text>
<path
         d="m 198.87152,146.35 h 20"
         style="fill:none;stroke:#a48cf4;stroke-width:1.75;stroke-linecap:round;stroke-linejoin:round;stroke-miterlimit:10;stroke-dasharray:none;stroke-opacity:1"
         id="path236"
         inkscape:connector-curvature="0" /><text
         transform="matrix(1,0,0,-1,226.87152,142.85)"
         style="font-variant:normal;font-weight:normal;font-size:10px;font-family:'Libertinus Serif';-inkscape-font-specification:'Libertinus Serif';writing-mode:lr-tb;fill:#000000;fill-opacity:1;fill-rule:nonzero;stroke:none;font-style:normal;font-stretch:normal;"
         id="text240"><tspan
           sodipodi:role="line"
           id="tspan238"
           x="0"
           y="0">CT HMC</tspan></text>
</g></g></svg>