<?xml version="1.0" encoding="UTF-8" standalone="no"?>
<!-- Created with Inkscape (http://www.inkscape.org/) -->

<svg
   xmlns:dc="http://purl.org/dc/elements/1.1/"
   xmlns:cc="http://creativecommons.org/ns#"
   xmlns:rdf="http://www.w3.org/1999/02/22-rdf-syntax-ns#"
   xmlns:svg="http://www.w3.org/2000/svg"
   xmlns="http://www.w3.org/2000/svg"
   xmlns:sodipodi="http://sodipodi.sourceforge.net/DTD/sodipodi-0.dtd"
   xmlns:inkscape="http://www.inkscape.org/namespaces/inkscape"
   version="1.1"
   id="svg2"
   xml:space="preserve"
   width="383.7662"
   height="237.45625"
   viewBox="0 0 383.7662 237.45625"
   sodipodi:docname="gaussian-bm-relaxation-30-unit-scale-6-log-norm-rmses.svg"
   inkscape:version="0.92.1 unknown"><metadata
     id="metadata8"><rdf:RDF><cc:Work
         rdf:about=""><dc:format>image/svg+xml</dc:format><dc:type
           rdf:resource="http://purl.org/dc/dcmitype/StillImage" /><dc:title></dc:title></cc:Work></rdf:RDF></metadata><defs
     id="defs6"><clipPath
       clipPathUnits="userSpaceOnUse"
       id="clipPath100"><path
         d="M 41.25,31.578125 H 278.09027 V 173.42813 H 41.25 Z"
         id="path98"
         inkscape:connector-curvature="0" /></clipPath><clipPath
       clipPathUnits="userSpaceOnUse"
       id="clipPath110"><path
         d="M 41.25,31.578125 H 278.09027 V 173.42813 H 41.25 Z"
         id="path108"
         inkscape:connector-curvature="0" /></clipPath><clipPath
       clipPathUnits="userSpaceOnUse"
       id="clipPath120"><path
         d="M 41.25,31.578125 H 278.09027 V 173.42813 H 41.25 Z"
         id="path118"
         inkscape:connector-curvature="0" /></clipPath><clipPath
       clipPathUnits="userSpaceOnUse"
       id="clipPath130"><path
         d="M 41.25,31.578125 H 278.09027 V 173.42813 H 41.25 Z"
         id="path128"
         inkscape:connector-curvature="0" /></clipPath><clipPath
       clipPathUnits="userSpaceOnUse"
       id="clipPath140"><path
         d="M 41.25,31.578125 H 278.09027 V 173.42813 H 41.25 Z"
         id="path138"
         inkscape:connector-curvature="0" /></clipPath><clipPath
       clipPathUnits="userSpaceOnUse"
       id="clipPath150"><path
         d="M 41.25,31.578125 H 278.09027 V 173.42813 H 41.25 Z"
         id="path148"
         inkscape:connector-curvature="0" /></clipPath><clipPath
       clipPathUnits="userSpaceOnUse"
       id="clipPath160"><path
         d="M 41.25,31.578125 H 278.09027 V 173.42813 H 41.25 Z"
         id="path158"
         inkscape:connector-curvature="0" /></clipPath><clipPath
       clipPathUnits="userSpaceOnUse"
       id="clipPath170"><path
         d="m -3.5,-3.5 h 7 v 7 h -7 z"
         id="path168"
         inkscape:connector-curvature="0" /></clipPath><clipPath
       clipPathUnits="userSpaceOnUse"
       id="clipPath182"><path
         d="m -3.5,-3.5 h 7 v 7 h -7 z"
         id="path180"
         inkscape:connector-curvature="0" /></clipPath><clipPath
       clipPathUnits="userSpaceOnUse"
       id="clipPath194"><path
         d="m -3.5,-3.5 h 7 v 7 h -7 z"
         id="path192"
         inkscape:connector-curvature="0" /></clipPath><clipPath
       clipPathUnits="userSpaceOnUse"
       id="clipPath204"><path
         d="M 41.25,31.578125 H 278.09027 V 173.42813 H 41.25 Z"
         id="path202"
         inkscape:connector-curvature="0" /></clipPath><clipPath
       clipPathUnits="userSpaceOnUse"
       id="clipPath214"><path
         d="M 41.25,31.578125 H 278.09027 V 173.42813 H 41.25 Z"
         id="path212"
         inkscape:connector-curvature="0" /></clipPath><clipPath
       clipPathUnits="userSpaceOnUse"
       id="clipPath224"><path
         d="M 41.25,31.578125 H 278.09027 V 173.42813 H 41.25 Z"
         id="path222"
         inkscape:connector-curvature="0" /></clipPath></defs><sodipodi:namedview
     pagecolor="#ffffff"
     bordercolor="#666666"
     borderopacity="1"
     objecttolerance="10"
     gridtolerance="10"
     guidetolerance="10"
     inkscape:pageopacity="0"
     inkscape:pageshadow="2"
     inkscape:window-width="1366"
     inkscape:window-height="695"
     id="namedview4"
     showgrid="false"
     inkscape:zoom="1.4055406"
     inkscape:cx="104.301"
     inkscape:cy="92.774632"
     inkscape:window-x="0"
     inkscape:window-y="27"
     inkscape:window-maximized="1"
     inkscape:current-layer="g10" /><g
     id="g10"
     inkscape:groupmode="layer"
     inkscape:label="gaussian-bm-relaxation-30-unit-scale-6-log-norm-rmses"
     transform="matrix(1.3333333,0,0,-1.3333333,0,237.45625)"><path
       d="M 0,0 H 287.82465 V 178.09219 H 0 Z"
       style="fill:#ffffff;fill-opacity:1;fill-rule:nonzero;stroke:none"
       id="path12"
       inkscape:connector-curvature="0" /><path
       d="M 41.25,31.578125 H 278.09027 V 173.42813 H 41.25 Z"
       style="fill:#ffffff;fill-opacity:1;fill-rule:nonzero;stroke:none"
       id="path14"
       inkscape:connector-curvature="0" /><text
       transform="matrix(1,0,0,-1,34.296875,17.328125)"
       style="font-variant:normal;font-weight:normal;font-size:10px;font-family:'Libertinus Serif';-inkscape-font-specification:'Libertinus Serif';writing-mode:lr-tb;fill:#000000;fill-opacity:1;fill-rule:nonzero;stroke:none;font-style:normal;font-stretch:normal;"
       id="text18"><tspan
         x="0 5.5599999 8.3400002"
         y="0"
         sodipodi:role="line"
         id="tspan16">0.0</tspan></text>
<text
       transform="matrix(1,0,0,-1,90.725693,17.328125)"
       style="font-variant:normal;font-weight:normal;font-size:10px;font-family:'Libertinus Serif';-inkscape-font-specification:'Libertinus Serif';writing-mode:lr-tb;fill:#000000;fill-opacity:1;fill-rule:nonzero;stroke:none;font-style:normal;font-stretch:normal;"
       id="text22"><tspan
         x="0 5.5599999 11.12 13.9"
         y="0"
         sodipodi:role="line"
         id="tspan20">20.0</tspan></text>
<text
       transform="matrix(1,0,0,-1,149.93576,17.328125)"
       style="font-variant:normal;font-weight:normal;font-size:10px;font-family:'Libertinus Serif';-inkscape-font-specification:'Libertinus Serif';writing-mode:lr-tb;fill:#000000;fill-opacity:1;fill-rule:nonzero;stroke:none;font-style:normal;font-stretch:normal;"
       id="text26"><tspan
         x="0 5.5599999 11.12 13.9"
         y="0"
         sodipodi:role="line"
         id="tspan24">40.0</tspan></text>
<text
       transform="matrix(1,0,0,-1,209.14583,17.328125)"
       style="font-variant:normal;font-weight:normal;font-size:10px;font-family:'Libertinus Serif';-inkscape-font-specification:'Libertinus Serif';writing-mode:lr-tb;fill:#000000;fill-opacity:1;fill-rule:nonzero;stroke:none;font-style:normal;font-stretch:normal;"
       id="text30"><tspan
         x="0 5.5599999 11.12 13.9"
         y="0"
         sodipodi:role="line"
         id="tspan28">60.0</tspan></text>
<text
       transform="matrix(1,0,0,-1,268.3559,17.328125)"
       style="font-variant:normal;font-weight:normal;font-size:10px;font-family:'Libertinus Serif';-inkscape-font-specification:'Libertinus Serif';writing-mode:lr-tb;fill:#000000;fill-opacity:1;fill-rule:nonzero;stroke:none;font-style:normal;font-stretch:normal;"
       id="text34"><tspan
         x="0 5.5599999 11.12 13.9"
         y="0"
         sodipodi:role="line"
         id="tspan32">80.0</tspan></text>
<text
       transform="matrix(1,0,0,-1,140.09982,2.28125)"
       style="font-variant:normal;font-weight:normal;font-size:11px;font-family:'Liberation Sans';-inkscape-font-specification:LiberationSans;writing-mode:lr-tb;fill:#000000;fill-opacity:1;fill-rule:nonzero;stroke:none"
       id="text38"><tspan
         sodipodi:role="line"
         id="tspan36"
         x="0"
         y="0"
         style="-inkscape-font-specification:'Libertinus Serif';font-family:'Libertinus Serif';font-weight:normal;font-style:normal;font-stretch:normal;font-variant:normal">Time / s</tspan></text>
<text
       id="text44"
       style="font-style:normal;font-variant:normal;font-weight:normal;font-stretch:normal;font-size:10px;font-family:'Libertinus Serif';-inkscape-font-specification:'Libertinus Serif';writing-mode:lr-tb;fill:#000000;fill-opacity:1;fill-rule:nonzero;stroke:none"
       transform="scale(1,-1)"
       x="16.850807"
       y="-29.726562"><tspan
         id="tspan42"
         sodipodi:role="line"
         y="-29.726562"
         x="16.850807">10</tspan></text>
<text
       id="text48"
       style="font-variant:normal;font-weight:normal;font-size:7px;font-family:'Libertinus Serif';-inkscape-font-specification:'Libertinus Serif';writing-mode:lr-tb;fill:#000000;fill-opacity:1;fill-rule:nonzero;stroke:none;font-style:normal;font-stretch:normal;"
       transform="scale(1,-1)"
       x="26.650312"
       y="-32.103123"><tspan
         y="-32.103123"
         id="tspan46"
         sodipodi:role="line"
         x="26.650312">-2</tspan></text>
<text
       id="text54"
       style="font-style:normal;font-variant:normal;font-weight:normal;font-stretch:normal;font-size:10px;font-family:'Libertinus Serif';-inkscape-font-specification:'Libertinus Serif';writing-mode:lr-tb;fill:#000000;fill-opacity:1;fill-rule:nonzero;stroke:none"
       transform="scale(1,-1)"
       x="16.850807"
       y="-65.265625"><tspan
         id="tspan52"
         sodipodi:role="line"
         x="16.850807"
         y="-65.265625">10</tspan></text>
<text
       id="text58"
       style="font-variant:normal;font-weight:normal;font-size:7px;font-family:'Libertinus Serif';-inkscape-font-specification:'Libertinus Serif';writing-mode:lr-tb;fill:#000000;fill-opacity:1;fill-rule:nonzero;stroke:none;font-style:normal;font-stretch:normal;"
       transform="scale(1,-1)"
       x="26.650312"
       y="-67.642189"><tspan
         y="-67.642189"
         id="tspan56"
         sodipodi:role="line"
         x="26.650312">-1</tspan></text>
<text
       id="text64"
       style="font-style:normal;font-variant:normal;font-weight:normal;font-stretch:normal;font-size:10px;font-family:'Libertinus Serif';-inkscape-font-specification:'Libertinus Serif';writing-mode:lr-tb;fill:#000000;fill-opacity:1;fill-rule:nonzero;stroke:none"
       transform="scale(1,-1)"
       x="18.25"
       y="-100.65156"><tspan
         id="tspan62"
         sodipodi:role="line"
         x="18.25"
         y="-100.65156">10</tspan></text>
<text
       id="text68"
       style="font-variant:normal;font-weight:normal;font-size:7px;font-family:'Libertinus Serif';-inkscape-font-specification:'Libertinus Serif';writing-mode:lr-tb;fill:#000000;fill-opacity:1;fill-rule:nonzero;stroke:none;font-style:normal;font-stretch:normal;"
       transform="scale(1,-1)"
       x="29.650312"
       y="-103.02813"><tspan
         id="tspan66"
         y="-103.02813"
         x="29.650312"
         style="-inkscape-font-specification:'Libertinus Serif';font-family:'Libertinus Serif';font-weight:normal;font-style:normal;font-stretch:normal;font-variant:normal;">0</tspan></text>
<text
       id="text74"
       style="font-style:normal;font-variant:normal;font-weight:normal;font-stretch:normal;font-size:10px;font-family:'Libertinus Serif';-inkscape-font-specification:'Libertinus Serif';writing-mode:lr-tb;fill:#000000;fill-opacity:1;fill-rule:nonzero;stroke:none"
       transform="scale(1,-1)"
       x="18.25"
       y="-136.19063"><tspan
         id="tspan72"
         sodipodi:role="line"
         x="18.25"
         y="-136.19063">10</tspan></text>
<text
       id="text78"
       style="font-variant:normal;font-weight:normal;font-size:7px;font-family:'Libertinus Serif';-inkscape-font-specification:'Libertinus Serif';writing-mode:lr-tb;fill:#000000;fill-opacity:1;fill-rule:nonzero;stroke:none;font-style:normal;font-stretch:normal;"
       transform="scale(1,-1)"
       x="29.650312"
       y="-138.56718"><tspan
         id="tspan76"
         y="-138.56718"
         x="29.650312"
         style="-inkscape-font-specification:'Libertinus Serif';font-family:'Libertinus Serif';font-weight:normal;font-style:normal;font-stretch:normal;font-variant:normal;">1</tspan></text>
<text
       id="text84"
       style="font-style:normal;font-variant:normal;font-weight:normal;font-stretch:normal;font-size:10px;font-family:'Libertinus Serif';-inkscape-font-specification:'Libertinus Serif';writing-mode:lr-tb;fill:#000000;fill-opacity:1;fill-rule:nonzero;stroke:none"
       transform="scale(1,-1)"
       x="18.25"
       y="-171.57655"><tspan
         id="tspan82"
         sodipodi:role="line"
         x="18.25"
         y="-171.57655">10</tspan></text>
<text
       id="text88"
       style="font-variant:normal;font-weight:normal;font-size:7px;font-family:'Libertinus Serif';-inkscape-font-specification:'Libertinus Serif';writing-mode:lr-tb;fill:#000000;fill-opacity:1;fill-rule:nonzero;stroke:none;font-style:normal;font-stretch:normal;"
       transform="scale(1,-1)"
       x="29.650312"
       y="-173.95312"><tspan
         id="tspan86"
         y="-173.95312"
         x="29.650312"
         style="-inkscape-font-specification:'Libertinus Serif';font-family:'Libertinus Serif';font-weight:normal;font-style:normal;font-stretch:normal;font-variant:normal;">2</tspan></text>
<text
       transform="matrix(0,1,1,0,7.96875,65.198437)"
       style="font-variant:normal;font-weight:normal;font-size:11px;font-family:'Liberation Sans';-inkscape-font-specification:LiberationSans;writing-mode:lr-tb;fill:#000000;fill-opacity:1;fill-rule:nonzero;stroke:none"
       id="text92"><tspan
         sodipodi:role="line"
         id="tspan90"
         x="0"
         y="0"
         style="-inkscape-font-specification:'Libertinus Serif';font-family:'Libertinus Serif';font-weight:normal;font-style:normal;font-stretch:normal;font-variant:normal">Relative RMSE</tspan></text>
<g
       id="g94"><g
         id="g96"
         clip-path="url(#clipPath100)"><path
           d="m 41.25,159.74656 v -6.21179 l 2.617749,-33.99482 2.617749,-6.66683 2.61775,-3.1289 2.617749,-1.75467 2.617749,-1.79729 2.617749,-0.64202 2.617749,-1.34575 2.61775,-1.26484 2.617749,-1.57242 2.617749,-1.613119 2.617749,-0.989439 2.617749,-1.057351 2.617749,-1.03928 2.61775,-0.90039 2.617749,-1.660297 2.617749,-1.663596 2.617749,-1.473826 2.617749,-0.990496 2.61775,-0.432779 2.617749,0.04839 2.617749,-0.798381 2.617749,-0.437032 2.617748,-0.347121 2.61775,0.172361 2.61775,-0.641679 2.61775,-0.970522 2.61775,-1.203291 2.61775,-1.27046 2.61775,-0.644057 2.61775,-0.06777 2.61775,-0.04873 2.61774,0.01564 2.61775,-0.156568 2.61775,0.223652 2.61775,0.299625 2.61775,-0.05596 2.61775,-0.164101 2.61775,-0.108776 2.61775,0.254118 2.61775,0.111103 2.61775,-0.03596 2.61775,-0.646458 2.61774,-0.241025 2.61775,-0.146153 2.61775,-0.251701 2.61775,-0.201163 2.61775,-0.556236 2.61775,-0.761602 2.61775,-0.29833 2.61775,-0.614765 2.61775,-0.70101 2.61775,-0.905737 2.61775,-0.608803 2.61775,-1.044777 2.61775,-1.182815 2.61774,-0.979912 2.61775,0.04908 2.61775,-0.238426 2.61775,-0.230458 2.61775,0.109918 2.61775,-0.0075 2.61775,-0.0077 2.61775,-0.304068 2.61775,0.271459 2.61775,0.191769 2.61775,0.04249 2.61775,0.316717 2.61774,0.210139 2.61775,-0.367898 2.61775,0.172792 2.61775,0.01847 2.61775,-0.0545 2.61775,-0.159082 2.61775,0.114901 2.61775,0.0352 2.61775,0.08062 2.61775,0.255634 2.61775,0.298159 2.61775,-0.05554 2.61774,-0.175419 2.61775,-0.06197 2.61775,-0.08336 2.61775,0.190487 2.61775,0.07725 2.61775,-0.256137 2.61775,-0.298765 2.61775,0.100176 2.61775,-0.117739 2.61775,-0.589739 2.61775,-0.354859 2.61775,-0.263792 2.61775,0.0094 2.61774,-0.192038 2.61775,-0.442304 2.61775,-0.202249 2.61775,-0.335673 2.61775,-0.08217 2.61775,-0.152179 2.61775,-0.124128 v 10.084273 0 l -2.61775,0.05407 -2.61775,0.167566 -2.61775,0.152819 -2.61775,0.368918 -2.61775,0.218256 -2.61775,0.440616 -2.61774,0.33993 -2.61775,0.225525 -2.61775,0.339381 -2.61775,0.271729 -2.61775,0.384556 -2.61775,0.193527 -2.61775,-0.0316 -2.61775,0.192788 -2.61775,0.147154 -2.61775,0.0065 -2.61775,-0.0886 -2.61775,0.03039 -2.61775,-0.100921 -2.61774,0.16578 -2.61775,0.02893 -2.61775,-0.200613 -2.61775,-0.366035 -2.61775,-0.283027 -2.61775,-0.07515 -2.61775,-0.165711 -2.61775,-0.02504 -2.61775,-0.150577 -2.61775,-0.194929 -2.61775,-0.240328 -2.61775,0.184811 -2.61774,-0.367915 -2.61775,-0.324721 -2.61775,-0.224021 -2.61775,-0.160595 -2.61775,-0.342933 -2.61775,0.305569 -2.61775,-0.08567 -2.61775,-0.125862 -2.61775,-0.274405 -2.61775,0.308562 -2.61775,0.464505 -2.61775,0.114971 -2.61774,0.911348 -2.61775,1.091676 -2.61775,1.292191 -2.61775,0.722468 -2.61775,0.806056 -2.61775,0.781229 -2.61775,0.616178 -2.61775,0.494368 -2.61775,0.63922 -2.61775,0.571224 -2.61775,0.09215 -2.61775,0.07239 -2.61775,0.09605 -2.61774,0.193261 -2.61775,0.405246 -2.61775,-0.157288 -2.61775,-0.109935 -2.61775,-0.246986 -2.61775,0.113866 -2.61775,0.186211 -2.61775,0.113163 -2.61775,0.0698 -2.61775,-0.0518 -2.61775,0.16169 -2.61774,0.149665 -2.61775,0.02184 -2.61775,0.131235 -2.61775,0.251714 -2.61775,0.91008 -2.61775,1.094227 -2.61775,0.805876 -2.61775,0.662224 -2.61775,-0.02716 -2.617748,0.316901 -2.617749,0.507367 -2.617749,0.908207 -2.617749,0.336727 -2.61775,0.7282 -2.617749,1.111849 -2.617749,1.60584 -2.617749,1.40342 -2.617749,1.18364 -2.61775,0.73425 -2.617749,0.77743 -2.617749,0.82688 -2.617749,0.69767 -2.617749,1.63576 -2.617749,1.48647 -2.61775,1.26761 -2.617749,1.25964 -2.617749,0.87824 -2.617749,1.44706 -2.617749,1.22029 -2.61775,2.89106 -2.617749,6.54033 z"
           style="fill:#97a431;fill-opacity:0.2;fill-rule:nonzero;stroke:#000000;stroke-width:0.30000001;stroke-linecap:butt;stroke-linejoin:round;stroke-miterlimit:10;stroke-dasharray:none;stroke-opacity:0.2"
           id="path102"
           inkscape:connector-curvature="0" /></g></g><g
       id="g104"><g
         id="g106"
         clip-path="url(#clipPath110)"><path
           d="m 41.25,163.37762 v -7.26256 l 1.513657,-39.52881 1.513658,-6.71366 1.513657,-3.93865 1.513657,-3.32706 1.513657,-2.864241 1.513658,-0.986651 1.513657,-1.714916 1.513657,-1.084221 1.513657,-0.741389 1.513658,-1.274299 1.513657,-0.718442 1.513657,-1.102159 1.513657,-1.478386 1.513658,-0.28218 1.513657,-0.388883 1.513657,-0.845181 1.513658,-1.001348 1.513657,-0.689298 1.513657,-0.899618 1.513657,0.02625 1.513658,-0.02866 1.513657,0.2929 1.513657,0.02974 1.513657,-0.329578 1.513658,-1.338461 1.513657,-0.855538 1.513657,-0.207395 1.513658,-0.826862 1.513657,-0.530515 1.513657,-1.299911 1.513657,-0.365013 1.513658,0.119798 1.513657,-0.916979 1.513657,-0.361476 1.513657,-0.886828 1.513658,-0.242153 1.513657,-0.04676 1.513657,-0.101132 1.513654,-0.443128 1.51366,0.470148 1.51366,-0.422981 1.51366,-0.427194 1.51365,0.167738 1.51366,0.370966 1.51366,-0.293696 1.51365,0.245567 1.51366,-0.204297 1.51366,-0.114461 1.51366,-0.125844 1.51365,0.129254 1.51366,0.127448 1.51366,0.0783 1.51365,0.555437 1.51366,0.321427 1.51366,-0.06557 1.51366,-0.257374 1.51365,-0.22321 1.51366,-0.112278 1.51366,0.110132 1.51366,0.158311 1.51365,0.115209 1.51366,0.142403 1.51366,-0.188623 1.51365,-0.122718 1.51366,-0.02303 1.51366,-0.283313 1.51366,-0.101529 1.51365,-0.373073 1.51366,-0.419434 1.51366,-0.183615 1.51366,0.09272 1.51365,-0.130413 1.51366,-0.135024 1.51366,-0.143058 1.51365,-0.141406 1.51366,0.162258 1.51366,-0.05474 1.51366,-0.231727 1.51365,-0.06468 1.51366,0.207252 1.51366,-0.02788 1.51366,-0.07402 1.51365,-0.362383 1.51366,-0.160217 1.51366,-0.184577 1.51365,-0.558604 1.51366,-0.144669 1.51366,-0.238739 1.51366,-0.537943 1.51365,-0.44925 1.51366,-0.427255 1.51366,0.178639 1.51366,0.06541 1.51365,-0.04472 1.51366,-0.385592 1.51366,-0.0266 1.51365,-0.0329 1.51366,0.141408 1.51366,0.1093 1.51366,-0.332291 1.51365,-0.222693 1.51366,0.08022 1.51366,-0.171676 1.51366,-0.261363 1.51365,-0.303471 1.51366,-0.0951 1.51366,-0.431585 1.51365,-0.290466 1.51366,-0.361618 1.51366,-0.260293 1.51366,-0.192699 1.51365,-0.0054 1.51366,-0.227161 1.51366,-0.237035 1.51366,-0.259401 1.51365,0.05353 1.51366,0.01125 1.51366,0.208667 1.51365,-0.102882 1.51366,0.117763 1.51366,0.09161 1.51366,0.11498 1.51365,0.116598 1.51366,-0.129365 1.51366,0.02503 1.51366,-0.05888 1.51365,0.0753 1.51366,-0.141206 1.51366,0.130477 1.51366,-0.120251 1.51365,-0.06139 1.51366,-0.382753 1.51366,-0.294227 1.51365,-0.323321 1.51366,-0.199069 1.51366,-0.08545 1.51366,0.068 1.51365,0.03132 1.51366,0.07562 1.51366,0.09138 1.51365,0.02697 1.51366,-0.0191 1.51366,-0.0091 1.51366,0.06817 1.51365,-0.0869 1.51366,0.07889 1.51366,-0.149586 1.51366,-0.251801 1.51365,-0.393068 v 11.208608 0 l -1.51365,0.265321 -1.51366,0.03822 -1.51366,0.130266 -1.51366,-0.02194 -1.51365,0.0752 -1.51366,0.04437 -1.51366,0.08135 -1.51366,0.01374 -1.51365,-0.10621 -1.51366,-0.145988 -1.51366,0.01666 -1.51365,0.0024 -1.51366,0.02611 -1.51366,0.119032 -1.51366,0.07599 -1.51365,0.18853 -1.51366,0.197562 -1.51366,0.157754 -1.51365,0.06944 -1.51366,0.08831 -1.51366,-0.187664 -1.51366,0.05355 -1.51365,-0.130265 -1.51366,-0.05039 -1.51366,0.0035 -1.51366,0.102158 -1.51365,-0.154861 -1.51366,-0.159606 -1.51366,-0.145508 -1.51366,-0.102973 -1.51365,0.115819 -1.51366,-0.144458 -1.51366,-0.05756 -1.51365,-0.08488 -1.51366,0.205779 -1.51366,0.160505 -1.51366,0.211385 -1.51365,-0.01962 -1.51366,0.09268 -1.51366,0.100842 -1.51366,0.205883 -1.51365,0.221825 -1.51366,0.295398 -1.51366,0.125964 -1.51365,0.197512 -1.51366,0.283699 -1.51366,0.223298 -1.51366,0.02048 -1.51365,0.08789 -1.51366,0.185674 -1.51366,-0.0821 -1.51366,-0.176214 -1.51365,0.05404 -1.51366,-0.05677 -1.51366,0.405511 -1.51365,0.04251 -1.51366,-0.104688 -1.51366,-0.09203 -1.51366,0.280485 -1.51365,0.546963 -1.51366,0.497625 -1.51366,0.286029 -1.51366,0.267974 -1.51365,0.425762 -1.51366,0.09479 -1.51366,0.185167 -1.51365,0.214879 -1.51366,-0.02989 -1.51366,0.05952 -1.51366,-0.178358 -1.51365,-0.008 -1.51366,-0.0036 -1.51366,-0.08572 -1.51366,-0.20811 -1.51365,0.128844 -1.51366,0.180626 -1.51366,0.25061 -1.51365,0.267862 -1.51366,-0.04536 -1.51366,0.287392 -1.51366,0.365086 -1.51365,0.336715 -1.51366,-0.05603 -1.51366,0.157333 -1.51366,-0.01337 -1.51365,0.07868 -1.51366,0.08268 -1.51366,-0.288829 -1.51365,-0.321477 -1.51366,-0.282474 -1.51366,-0.209555 -1.51366,0.04782 -1.51365,0.146729 -1.51366,0.221903 -1.51366,0.04114 -1.51366,-0.423979 -1.51365,-0.550601 -1.51366,0.06294 -1.51366,-0.06744 -1.51365,-0.02342 -1.51366,0.13413 -1.51366,0.06808 -1.51366,0.393057 -1.51365,0.03438 -1.51366,0.435204 -1.51366,-0.185474 -1.51365,0.08541 -1.51366,0.603912 -1.51366,0.392508 -1.51366,-0.205636 -1.513654,0.430548 -1.513657,0.356804 -1.513657,0.379304 -1.513658,0.201521 -1.513657,0.767123 -1.513657,0.251279 -1.513657,0.874072 -1.513658,-0.01061 -1.513657,0.502766 -1.513657,1.2467 -1.513657,0.528406 -1.513658,1.078219 -1.513657,0.483541 -1.513657,0.707862 -1.513658,0.88834 -1.513657,0.116734 -1.513657,-0.339652 -1.513657,-0.295803 -1.513658,0.05151 -1.513657,-0.01891 -1.513657,0.721502 -1.513657,0.650872 -1.513658,1.000347 -1.513657,0.868865 -1.513657,0.674159 -1.513658,0.395253 -1.513657,1.518075 -1.513657,1.1261 -1.513657,0.3883 -1.513658,1.3347 -1.513657,0.59213 -1.513657,0.91176 -1.513657,1.72066 -1.513658,0.92276 -1.513657,2.25144 -1.513657,3.00734 -1.513657,3.78483 -1.513658,6.0723 z"
           style="fill:#36ada4;fill-opacity:0.2;fill-rule:nonzero;stroke:#000000;stroke-width:0.30000001;stroke-linecap:butt;stroke-linejoin:round;stroke-miterlimit:10;stroke-dasharray:none;stroke-opacity:0.2"
           id="path112"
           inkscape:connector-curvature="0" /></g></g><g
       id="g114"><g
         id="g116"
         clip-path="url(#clipPath120)"><path
           d="m 41.25,152.03073 v -8.40426 l 1.721619,-39.8343 1.72162,-7.499254 1.721619,-7.319259 1.72162,-1.615399 1.721619,-2.218013 1.72162,0.209468 1.721619,0.0274 1.72162,-0.795823 1.721619,-0.414665 1.72162,-0.292113 1.721619,-1.350761 1.72162,-0.658553 1.721619,-1.450919 1.721619,-1.025707 1.72162,-1.225057 1.721619,-0.811434 1.72162,-0.0022 1.721619,-0.377965 1.72162,-0.114489 1.721619,-0.867843 1.72162,-0.997022 1.721619,-1.549083 1.72162,0.232837 1.721619,-0.243129 1.72162,-0.449395 1.721619,0.362592 1.721619,0.136538 1.72162,0.320108 1.721619,-0.03288 1.72162,0.213327 1.721619,-0.01619 1.72162,-0.570544 1.721619,-0.673121 1.72162,-0.400437 1.721618,-0.760602 1.72162,-0.541821 1.72162,0.292894 1.72162,0.05653 1.72162,-0.193717 1.72162,-0.02549 1.72162,-0.366496 1.72162,-0.689998 1.72162,-0.226247 1.72162,-0.650033 1.72162,-0.18605 1.72162,-0.539476 1.72162,-0.824965 1.72161,0.649492 1.72162,0.12981 1.72162,-0.205973 1.72162,0.442979 1.72162,-1.009983 1.72162,-0.403743 1.72162,-1.096413 1.72162,-0.348549 1.72162,-0.52346 1.72162,-0.826107 1.72162,0.102218 1.72162,0.624213 1.72162,-0.09835 1.72162,0.06506 1.72162,0.901946 1.72162,0.547624 1.72162,0.433584 1.72161,0.02669 1.72162,-0.127239 1.72162,0.07134 1.72162,0.388596 1.72162,0.08375 1.72162,0.11011 1.72162,0.03679 1.72162,0.02312 1.72162,0.207584 1.72162,-0.23726 1.72162,-0.211971 1.72162,0.136871 1.72162,0.362369 1.72162,-0.137881 1.72162,-0.142691 1.72162,0.06834 1.72162,0.08538 1.72162,-0.0452 1.72161,-0.40807 1.72162,-0.140178 1.72162,-0.171655 1.72162,-0.0074 1.72162,-0.358442 1.72162,-0.539277 1.72162,-0.250363 1.72162,-0.120213 1.72162,-0.625618 1.72162,-0.157853 1.72162,0.355261 1.72162,-0.224698 1.72162,-0.165875 1.72162,-0.04736 1.72162,-0.191573 1.72162,-0.342994 1.72162,-0.328757 1.72162,0.334236 1.72162,-0.0077 1.72161,-0.168568 1.72162,0.03488 1.72162,-0.04099 1.72162,0.107371 1.72162,-0.221643 1.72162,-0.119846 1.72162,0.468569 1.72162,-0.285818 1.72162,-0.128805 1.72162,0.161897 1.72162,0.03361 1.72162,0.07654 1.72162,0.196932 1.72162,0.203255 1.72162,0.05653 1.72162,0.07661 1.72162,0.174089 1.72162,0.23937 1.72161,-0.02401 1.72162,0.307114 1.72162,5.81e-4 1.72162,-0.215863 1.72162,0.242867 v 9.562575 0 l -1.72162,-0.294292 -1.72162,0.06349 -1.72162,0.138828 -1.72162,-0.303277 -1.72161,-0.10676 -1.72162,-0.401672 -1.72162,-0.326655 -1.72162,-0.05998 -1.72162,-0.0818 -1.72162,-0.01327 -1.72162,-0.09845 -1.72162,-0.03057 -1.72162,-0.0707 -1.72162,-0.252863 -1.72162,-0.05521 -1.72162,0.04068 -1.72162,-0.501317 -1.72162,-0.156219 -1.72162,0.123397 -1.72162,-0.140442 -1.72162,-0.02353 -1.72162,-0.06659 -1.72161,0.0744 -1.72162,0.07815 -1.72162,0.03332 -1.72162,0.226405 -1.72162,0.344398 -1.72162,0.122602 -1.72162,0.265422 -1.72162,0.319363 -1.72162,0.184137 -1.72162,-0.165667 -1.72162,0.253458 -1.72162,0.723507 -1.72162,0.337159 -1.72162,0.427654 -1.72162,0.780106 -1.72162,0.497386 -1.72162,0.268348 -1.72162,0.245882 -1.72162,0.226658 -1.72161,0.15851 -1.72162,0.233828 -1.72162,0.01844 -1.72162,-0.0082 -1.72162,0.0013 -1.72162,-0.218501 -1.72162,-0.321408 -1.72162,-0.238524 -1.72162,0.003 -1.72162,0.116932 -1.72162,-0.164936 -1.72162,-0.279144 -1.72162,-0.127859 -1.72162,-0.254996 -1.72162,-0.4761 -1.72162,-0.598551 -1.72162,-0.419211 -1.72162,-0.294851 -1.72161,-0.37448 -1.72162,-0.132348 -1.72162,-0.562294 -1.72162,-0.987704 -1.72162,0.0028 -1.72162,0.06809 -1.72162,-0.336369 -1.72162,0.05464 -1.72162,0.668923 -1.72162,0.617972 -1.72162,0.476913 -1.72162,0.902189 -1.72162,0.817664 -1.72162,1.29114 -1.72162,-0.03793 -1.72162,0.856107 -1.72162,0.719093 -1.72161,0.493225 -1.72162,0.999628 -1.72162,1.134028 -1.72162,0.568397 -1.72162,1.126771 -1.72162,0.518815 -1.72162,0.557799 -1.72162,0.171379 -1.72162,0.231727 -1.72162,0.103795 -1.72162,-0.203759 -1.72162,-0.329015 -1.72162,0.352971 -1.721618,1.36328 -1.72162,0.670772 -1.721619,0.525391 -1.72162,0.989029 -1.721619,0.709088 -1.72162,-0.09731 -1.721619,-0.300994 -1.72162,-0.481356 -1.721619,-0.109458 -1.721619,-0.527536 -1.72162,-0.420217 -1.721619,0.812132 -1.72162,0.03473 -1.721619,1.106614 -1.72162,0.95114 -1.721619,0.412091 -1.72162,-0.0943 -1.721619,0.666058 -1.72162,0.07324 -1.721619,-0.03633 -1.72162,1.613437 -1.721619,1.006959 -1.721619,1.846227 -1.72162,0.447844 -1.721619,1.076239 -1.72162,0.775281 -1.721619,-0.09253 -1.72162,1.481742 -1.721619,1.630877 -1.72162,0.008 -1.721619,0.7601 -1.72162,1.04745 -1.721619,4.45853 -1.72162,6.75367 z"
           style="fill:#a48cf4;fill-opacity:0.2;fill-rule:nonzero;stroke:#000000;stroke-width:0.30000001;stroke-linecap:butt;stroke-linejoin:round;stroke-miterlimit:10;stroke-dasharray:none;stroke-opacity:0.2"
           id="path122"
           inkscape:connector-curvature="0" /></g></g><g
       id="g124"><g
         id="g126"
         clip-path="url(#clipPath130)"><path
           d="M 63.275903,95.756398 V 114.27503"
           style="fill:none;stroke:#f77189;stroke-width:1.75;stroke-linecap:round;stroke-linejoin:round;stroke-miterlimit:10;stroke-dasharray:none;stroke-opacity:1"
           id="path132"
           inkscape:connector-curvature="0" /></g></g><g
       id="g134"><g
         id="g136"
         clip-path="url(#clipPath140)"><path
           d="M 152.15178,84.234268 V 96.488983"
           style="fill:none;stroke:#f77189;stroke-width:1.75;stroke-linecap:round;stroke-linejoin:round;stroke-miterlimit:10;stroke-dasharray:none;stroke-opacity:1"
           id="path142"
           inkscape:connector-curvature="0" /></g></g><g
       id="g144"><g
         id="g146"
         clip-path="url(#clipPath150)"><path
           d="M 261.36663,87.062245 V 101.56907"
           style="fill:none;stroke:#f77189;stroke-width:1.75;stroke-linecap:round;stroke-linejoin:round;stroke-miterlimit:10;stroke-dasharray:none;stroke-opacity:1"
           id="path152"
           inkscape:connector-curvature="0" /></g></g><g
       id="g154"><g
         id="g156"
         clip-path="url(#clipPath160)"><g
           id="g162"
           transform="translate(63.275903,106.02704)"><g
             id="g164"><g
               id="g166"
               clip-path="url(#clipPath170)"><path
                 d="m 0,-3.5 c 0.928211,0 1.81853,0.368782 2.474874,1.025126 C 3.131218,-1.81853 3.5,-0.928211 3.5,0 3.5,0.928211 3.131218,1.81853 2.474874,2.474874 1.81853,3.131218 0.928211,3.5 0,3.5 -0.928211,3.5 -1.81853,3.131218 -2.474874,2.474874 -3.131218,1.81853 -3.5,0.928211 -3.5,0 c 0,-0.928211 0.368782,-1.81853 1.025126,-2.474874 C -1.81853,-3.131218 -0.928211,-3.5 0,-3.5 Z"
                 style="fill:#f77189;fill-opacity:1;fill-rule:nonzero;stroke:none"
                 id="path172"
                 inkscape:connector-curvature="0" /></g></g><g
             id="g174"
             transform="translate(88.875881,-15.189421)"><g
               id="g176"><g
                 id="g178"
                 clip-path="url(#clipPath182)"><path
                   d="m 0,-3.5 c 0.928211,0 1.81853,0.368782 2.474874,1.025126 C 3.131218,-1.81853 3.5,-0.928211 3.5,0 3.5,0.928211 3.131218,1.81853 2.474874,2.474874 1.81853,3.131218 0.928211,3.5 0,3.5 -0.928211,3.5 -1.81853,3.131218 -2.474874,2.474874 -3.131218,1.81853 -3.5,0.928211 -3.5,0 c 0,-0.928211 0.368782,-1.81853 1.025126,-2.474874 C -1.81853,-3.131218 -0.928211,-3.5 0,-3.5 Z"
                   style="fill:#f77189;fill-opacity:1;fill-rule:nonzero;stroke:none"
                   id="path184"
                   inkscape:connector-curvature="0" /></g></g><g
               id="g186"
               transform="translate(109.21485,4.4143828)"><g
                 id="g188"><g
                   id="g190"
                   clip-path="url(#clipPath194)"><path
                     d="m 0,-3.5 c 0.928211,0 1.81853,0.368782 2.474874,1.025126 C 3.131218,-1.81853 3.5,-0.928211 3.5,0 3.5,0.928211 3.131218,1.81853 2.474874,2.474874 1.81853,3.131218 0.928211,3.5 0,3.5 -0.928211,3.5 -1.81853,3.131218 -2.474874,2.474874 -3.131218,1.81853 -3.5,0.928211 -3.5,0 c 0,-0.928211 0.368782,-1.81853 1.025126,-2.474874 C -1.81853,-3.131218 -0.928211,-3.5 0,-3.5 Z"
                     style="fill:#f77189;fill-opacity:1;fill-rule:nonzero;stroke:none"
                     id="path196"
                     inkscape:connector-curvature="0" /></g></g></g></g></g></g></g><g
       id="g198"><g
         id="g200"
         clip-path="url(#clipPath204)"><path
           d="m 41.25,156.88939 2.617749,-33.81072 2.617749,-6.65777 2.61775,-3.03047 2.617749,-1.42309 2.617749,-1.63197 2.617749,-0.80574 2.617749,-1.30823 2.61775,-1.25831 2.617749,-1.5534 2.617749,-1.60451 2.617749,-0.84453 2.617749,-0.9312 2.617749,-0.89055 2.61775,-0.82274 2.617749,-1.395915 2.617749,-1.520067 2.617749,-1.56187 2.617749,-1.031269 2.61775,-0.616842 2.617749,-0.156132 2.617749,-0.85093 2.617749,-0.427182 2.617748,-0.307931 2.61775,0.04289 2.61775,-0.650199 2.61775,-0.846892 2.61775,-1.172083 2.61775,-1.091324 2.61775,-0.41162 2.61775,-0.112533 2.61775,0.0035 2.61774,-0.09653 2.61775,-0.17103 2.61775,0.134447 2.61775,0.06134 2.61775,-0.07813 2.61775,-0.166015 2.61775,-0.105242 2.61775,0.245382 2.61775,0.125345 2.61775,0.06012 2.61775,-0.511279 2.61774,-0.238013 2.61775,-0.09663 2.61775,-0.134759 2.61775,-0.101366 2.61775,-0.588276 2.61775,-0.684312 2.61775,-0.427066 2.61775,-0.611873 2.61775,-0.718956 2.61775,-0.874549 2.61775,-0.72379 2.61775,-1.222949 2.61775,-1.111555 2.61774,-0.951075 2.61775,-0.06206 2.61775,-0.332722 2.61775,-0.29861 2.61775,0.217104 2.61775,0.09069 2.61775,0.03337 2.61775,-0.278444 2.61775,0.309647 2.61775,0.164679 2.61775,0.141159 2.61775,0.315794 2.61774,0.296081 2.61775,-0.243115 2.61775,0.195626 2.61775,0.141019 2.61775,0.06304 2.61775,-0.02592 2.61775,0.15944 2.61775,0.05873 2.61775,0.207377 2.61775,0.296411 2.61775,0.306875 2.61775,-0.04964 2.61774,-0.155317 2.61775,0.02557 2.61775,-0.02015 2.61775,0.125053 2.61775,0.0048 2.61775,-0.176133 2.61775,-0.240216 2.61775,0.04845 2.61775,-0.172406 2.61775,-0.456338 2.61775,-0.314331 2.61775,-0.306927 2.61775,-0.127483 2.61774,-0.273575 2.61775,-0.436219 1.50623,-0.135805"
           style="fill:none;stroke:#97a431;stroke-width:1.75;stroke-linecap:butt;stroke-linejoin:round;stroke-miterlimit:10;stroke-dasharray:6, 6;stroke-dashoffset:0;stroke-opacity:1"
           id="path206"
           inkscape:connector-curvature="0" /></g></g><g
       id="g208"><g
         id="g210"
         clip-path="url(#clipPath214)"><path
           d="m 41.25,159.99388 1.513657,-39.69792 1.513658,-6.36482 1.513657,-3.8615 1.513657,-3.15605 1.513657,-2.52041 1.513658,-0.94624 1.513657,-1.7247 1.513657,-0.95146 1.513657,-0.6644 1.513658,-1.372041 1.513657,-0.534453 1.513657,-1.12942 1.513657,-1.482754 1.513658,-0.365797 1.513657,-0.57854 1.513657,-0.876109 1.513658,-1.017618 1.513657,-0.643713 1.513657,-0.80355 3.027315,-0.02239 3.027314,0.497222 1.513657,-0.198013 1.513658,-1.082735 1.513657,-0.772549 1.513657,-0.394342 1.513658,-1.024277 1.513657,-0.569113 1.513657,-1.205202 1.513657,-0.462936 1.513658,0.100624 1.513657,-0.864439 1.513657,-0.328369 1.513657,-0.797832 3.027315,-0.480947 1.513657,-0.296087 1.513654,-0.462718 1.51366,0.303776 1.51366,-0.406239 1.51366,-0.534317 1.51365,-0.0056 1.51366,0.331292 1.51366,-0.387215 1.51365,0.09998 1.51366,-0.263451 3.02732,-0.231128 4.54097,0.25667 1.51365,0.550562 1.51366,0.390156 1.51366,-0.08817 3.02731,-0.409599 1.51366,-0.09697 4.54097,0.595223 1.51366,0.23487 3.02731,-0.247902 1.51366,-0.0141 1.51366,-0.218414 1.51366,-0.04004 4.54097,-0.954058 1.51366,0.114867 6.05462,-0.665567 1.51366,0.186006 1.51366,0.05661 3.02731,-0.09478 1.51366,0.200376 3.02732,-0.06123 3.02731,-0.482002 1.51366,-0.150914 1.51365,-0.472201 3.02732,-0.49636 3.02731,-1.030496 1.51366,-0.335827 3.02732,0.214917 1.51365,-0.0158 1.51366,-0.386562 6.05463,0.191927 1.51366,-0.263757 4.54097,-0.317976 3.02731,-0.530402 1.51366,-0.05717 1.51366,-0.373448 4.54097,-0.712522 1.51366,-0.140496 1.51365,-0.025 3.02732,-0.389121 1.51366,-0.20231 4.54097,0.26315 1.51365,-0.114187 4.54098,0.379064 1.51365,0.130525 1.51366,-0.13392 10.5956,0.0066 6.05463,-0.984625 1.51366,-0.123731 6.05463,0.173575 3.02731,0.04681 4.54097,-0.157482 1.51366,0.03826 4.54097,-0.539203 v 0"
           style="fill:none;stroke:#36ada4;stroke-width:1.75;stroke-linecap:butt;stroke-linejoin:round;stroke-miterlimit:10;stroke-dasharray:1, 3;stroke-dashoffset:0;stroke-opacity:1"
           id="path216"
           inkscape:connector-curvature="0" /></g></g><g
       id="g218"><g
         id="g220"
         clip-path="url(#clipPath224)"><path
           d="m 41.25,147.93361 1.721619,-38.69243 1.72162,-7.21589 1.721619,-5.653938 1.72162,-1.215061 1.721619,-1.334678 1.72162,0.09135 1.721619,-0.961992 1.72162,-1.231278 1.721619,-0.101807 1.72162,-0.624502 1.721619,-1.185867 1.72162,-0.535198 1.721619,-1.696836 1.721619,-1.000299 1.72162,-1.478088 1.721619,-0.293729 1.72162,-0.0018 1.721619,-0.528611 1.72162,-0.09078 1.721619,-0.669537 1.72162,-0.966251 1.721619,-1.316205 1.72162,0.127747 1.721619,-0.547177 1.72162,0.195151 1.721619,0.486508 1.721619,0.178639 1.72162,0.412523 1.721619,0.218719 1.72162,0.150273 1.721619,-0.463643 1.72162,-0.813379 1.721619,-0.625335 1.72162,-0.611146 1.721618,-1.225196 1.72162,-0.449446 1.72162,0.26618 1.72162,0.131642 1.72162,-0.150998 1.72162,-0.144357 1.72162,-0.228269 1.72162,-0.568811 1.72162,-0.40435 1.72162,-0.941148 1.72162,-0.398107 1.72162,-0.944263 1.72162,-0.929393 1.72161,0.0038 1.72162,-0.385274 1.72162,-0.531748 1.72162,0.221488 1.72162,-1.110283 1.72162,-0.623958 1.72162,-0.986528 1.72162,-0.46578 1.72162,-0.574868 1.72162,-0.76414 1.72162,-5.54e-4 1.72162,0.483645 1.72162,-0.05005 1.72162,0.01708 1.72162,0.996858 1.72162,0.52162 1.72162,0.260942 1.72161,0.235224 1.72162,0.136901 1.72162,0.289267 1.72162,0.483966 1.72162,0.31474 1.72162,0.21807 1.72162,0.116958 1.72162,0.164696 1.72162,0.201043 1.72162,-0.145737 1.72162,-0.08955 1.72162,0.206243 1.72162,0.321164 1.72162,0.09782 1.72162,-0.01461 1.72162,0.0072 1.72162,0.0081 1.72162,-0.113927 1.72161,-0.253437 1.72162,-0.179611 1.72162,-0.264602 1.72162,-0.180237 1.72162,-0.477652 1.72162,-0.686428 1.72162,-0.375523 1.72162,-0.268013 1.72162,-0.636793 1.72162,-0.223619 1.72162,0.219775 1.72162,-0.190408 1.72162,-0.29662 1.72162,-0.17661 1.72162,-0.127218 1.72162,-0.334505 1.72162,-0.282371 1.72162,0.115147 1.72162,-0.0074 1.72161,-0.114531 1.72162,0.04925 1.72162,-0.01763 1.72162,0.123158 1.72162,-0.140517 1.72162,0.06502 1.72162,0.477474 1.72162,-0.116825 1.72162,-0.01617 1.72162,0.232475 1.72162,0.05402 1.72162,0.06481 1.72162,0.104275 1.72162,0.06744 1.72162,0.06648 1.72162,0.03647 1.72162,0.270725 1.72162,0.371303 1.72161,0.06086 1.72162,0.31251 1.72162,-0.107345 1.72162,-0.110037 1.72162,0.269126"
           style="fill:none;stroke:#a48cf4;stroke-width:1.75;stroke-linecap:round;stroke-linejoin:round;stroke-miterlimit:10;stroke-dasharray:none;stroke-opacity:1"
           id="path226"
           inkscape:connector-curvature="0" /></g></g><g
       id="g228"><path
         d="M 41.25,173.42813 H 278.09027"
         style="fill:none;stroke:#262626;stroke-width:1.25;stroke-linecap:square;stroke-linejoin:miter;stroke-miterlimit:10;stroke-dasharray:none;stroke-opacity:1"
         id="path230"
         inkscape:connector-curvature="0" /><path
         d="M 278.09027,31.578125 V 173.42813"
         style="fill:none;stroke:#262626;stroke-width:1.25;stroke-linecap:square;stroke-linejoin:miter;stroke-miterlimit:10;stroke-dasharray:none;stroke-opacity:1"
         id="path232"
         inkscape:connector-curvature="0" /><path
         d="M 41.25,31.578125 H 278.09027"
         style="fill:none;stroke:#262626;stroke-width:1.25;stroke-linecap:square;stroke-linejoin:miter;stroke-miterlimit:10;stroke-dasharray:none;stroke-opacity:1"
         id="path234"
         inkscape:connector-curvature="0" /><path
         d="M 41.25,31.578125 V 173.42813"
         style="fill:none;stroke:#262626;stroke-width:1.25;stroke-linecap:square;stroke-linejoin:miter;stroke-miterlimit:10;stroke-dasharray:none;stroke-opacity:1"
         id="path236"
         inkscape:connector-curvature="0" /><path
         d="m 144.7309,157.17812 c 0.92821,0 1.81853,0.36879 2.47487,1.02513 0.65635,0.65634 1.02513,1.54666 1.02513,2.47487 0,0.92822 -0.36878,1.81853 -1.02513,2.47488 -0.65634,0.65634 -1.54666,1.02512 -2.47487,1.02512 -0.92821,0 -1.81853,-0.36878 -2.47488,-1.02512 -0.65634,-0.65635 -1.02512,-1.54666 -1.02512,-2.47488 0,-0.92821 0.36878,-1.81853 1.02512,-2.47487 0.65635,-0.65634 1.54667,-1.02513 2.47488,-1.02513 z"
         style="fill:#f77189;fill-opacity:1;fill-rule:nonzero;stroke:none"
         id="path238"
         inkscape:connector-curvature="0" /><text
         transform="matrix(1,0,0,-1,162.7309,157.17812)"
         style="font-variant:normal;font-weight:normal;font-size:10px;font-family:'Libertinus Serif';-inkscape-font-specification:'Libertinus Serif';writing-mode:lr-tb;fill:#000000;fill-opacity:1;fill-rule:nonzero;stroke:none;font-style:normal;font-stretch:normal;"
         id="text242"><tspan
           sodipodi:role="line"
           id="tspan240"
           x="0"
           y="0">AIS</tspan></text>
<path
         d="m 134.7309,146.35 h 20"
         style="fill:none;stroke:#97a431;stroke-width:1.75;stroke-linecap:butt;stroke-linejoin:round;stroke-miterlimit:10;stroke-dasharray:6, 6;stroke-dashoffset:0;stroke-opacity:1"
         id="path244"
         inkscape:connector-curvature="0" /><text
         transform="matrix(1,0,0,-1,162.7309,142.85)"
         style="font-variant:normal;font-weight:normal;font-size:10px;font-family:'Libertinus Serif';-inkscape-font-specification:'Libertinus Serif';writing-mode:lr-tb;fill:#000000;fill-opacity:1;fill-rule:nonzero;stroke:none;font-style:normal;font-stretch:normal;"
         id="text248"><tspan
           sodipodi:role="line"
           id="tspan246"
           x="0"
           y="0">ST</tspan></text>
<path
         d="m 198.8559,160.67812 h 20"
         style="fill:none;stroke:#36ada4;stroke-width:1.75;stroke-linecap:butt;stroke-linejoin:round;stroke-miterlimit:10;stroke-dasharray:1, 3;stroke-dashoffset:0;stroke-opacity:1"
         id="path250"
         inkscape:connector-curvature="0" /><text
         transform="matrix(1,0,0,-1,226.8559,157.17812)"
         style="font-variant:normal;font-weight:normal;font-size:10px;font-family:'Libertinus Serif';-inkscape-font-specification:'Libertinus Serif';writing-mode:lr-tb;fill:#000000;fill-opacity:1;fill-rule:nonzero;stroke:none;font-style:normal;font-stretch:normal;"
         id="text254"><tspan
           sodipodi:role="line"
           id="tspan252"
           x="0"
           y="0">Gibbs CT</tspan></text>
<path
         d="m 198.8559,146.35 h 20"
         style="fill:none;stroke:#a48cf4;stroke-width:1.75;stroke-linecap:round;stroke-linejoin:round;stroke-miterlimit:10;stroke-dasharray:none;stroke-opacity:1"
         id="path256"
         inkscape:connector-curvature="0" /><text
         transform="matrix(1,0,0,-1,226.8559,142.85)"
         style="font-variant:normal;font-weight:normal;font-size:10px;font-family:'Libertinus Serif';-inkscape-font-specification:'Libertinus Serif';writing-mode:lr-tb;fill:#000000;fill-opacity:1;fill-rule:nonzero;stroke:none;font-style:normal;font-stretch:normal;"
         id="text260"><tspan
           sodipodi:role="line"
           id="tspan258"
           x="0"
           y="0">CT HMC</tspan></text>
</g></g></svg>