<?xml version="1.0" encoding="UTF-8" standalone="no"?>
<!-- Created with Inkscape (http://www.inkscape.org/) -->

<svg
   xmlns:dc="http://purl.org/dc/elements/1.1/"
   xmlns:cc="http://creativecommons.org/ns#"
   xmlns:rdf="http://www.w3.org/1999/02/22-rdf-syntax-ns#"
   xmlns:svg="http://www.w3.org/2000/svg"
   xmlns="http://www.w3.org/2000/svg"
   xmlns:sodipodi="http://sodipodi.sourceforge.net/DTD/sodipodi-0.dtd"
   xmlns:inkscape="http://www.inkscape.org/namespaces/inkscape"
   version="1.1"
   id="svg2"
   xml:space="preserve"
   width="383.78702"
   height="237.45625"
   viewBox="0 0 383.78702 237.45625"
   sodipodi:docname="gaussian-bm-relaxation-30-unit-scale-6-mean-rmses.svg"
   inkscape:version="0.92.1 unknown"><metadata
     id="metadata8"><rdf:RDF><cc:Work
         rdf:about=""><dc:format>image/svg+xml</dc:format><dc:type
           rdf:resource="http://purl.org/dc/dcmitype/StillImage" /><dc:title></dc:title></cc:Work></rdf:RDF></metadata><defs
     id="defs6"><clipPath
       clipPathUnits="userSpaceOnUse"
       id="clipPath80"><path
         d="M 41.25,31.578125 H 278.1059 V 173.42813 H 41.25 Z"
         id="path78"
         inkscape:connector-curvature="0" /></clipPath><clipPath
       clipPathUnits="userSpaceOnUse"
       id="clipPath90"><path
         d="M 41.25,31.578125 H 278.1059 V 173.42813 H 41.25 Z"
         id="path88"
         inkscape:connector-curvature="0" /></clipPath><clipPath
       clipPathUnits="userSpaceOnUse"
       id="clipPath100"><path
         d="M 41.25,31.578125 H 278.1059 V 173.42813 H 41.25 Z"
         id="path98"
         inkscape:connector-curvature="0" /></clipPath><clipPath
       clipPathUnits="userSpaceOnUse"
       id="clipPath110"><path
         d="M 41.25,31.578125 H 278.1059 V 173.42813 H 41.25 Z"
         id="path108"
         inkscape:connector-curvature="0" /></clipPath><clipPath
       clipPathUnits="userSpaceOnUse"
       id="clipPath120"><path
         d="M 41.25,31.578125 H 278.1059 V 173.42813 H 41.25 Z"
         id="path118"
         inkscape:connector-curvature="0" /></clipPath><clipPath
       clipPathUnits="userSpaceOnUse"
       id="clipPath130"><path
         d="M 41.25,31.578125 H 278.1059 V 173.42813 H 41.25 Z"
         id="path128"
         inkscape:connector-curvature="0" /></clipPath><clipPath
       clipPathUnits="userSpaceOnUse"
       id="clipPath140"><path
         d="M 41.25,31.578125 H 278.1059 V 173.42813 H 41.25 Z"
         id="path138"
         inkscape:connector-curvature="0" /></clipPath><clipPath
       clipPathUnits="userSpaceOnUse"
       id="clipPath150"><path
         d="m -3.5,-3.5 h 7 v 7 h -7 z"
         id="path148"
         inkscape:connector-curvature="0" /></clipPath><clipPath
       clipPathUnits="userSpaceOnUse"
       id="clipPath162"><path
         d="m -3.5,-3.5 h 7 v 7 h -7 z"
         id="path160"
         inkscape:connector-curvature="0" /></clipPath><clipPath
       clipPathUnits="userSpaceOnUse"
       id="clipPath174"><path
         d="m -3.5,-3.5 h 7 v 7 h -7 z"
         id="path172"
         inkscape:connector-curvature="0" /></clipPath><clipPath
       clipPathUnits="userSpaceOnUse"
       id="clipPath184"><path
         d="M 41.25,31.578125 H 278.1059 V 173.42813 H 41.25 Z"
         id="path182"
         inkscape:connector-curvature="0" /></clipPath><clipPath
       clipPathUnits="userSpaceOnUse"
       id="clipPath194"><path
         d="M 41.25,31.578125 H 278.1059 V 173.42813 H 41.25 Z"
         id="path192"
         inkscape:connector-curvature="0" /></clipPath><clipPath
       clipPathUnits="userSpaceOnUse"
       id="clipPath204"><path
         d="M 41.25,31.578125 H 278.1059 V 173.42813 H 41.25 Z"
         id="path202"
         inkscape:connector-curvature="0" /></clipPath></defs><sodipodi:namedview
     pagecolor="#ffffff"
     bordercolor="#666666"
     borderopacity="1"
     objecttolerance="10"
     gridtolerance="10"
     guidetolerance="10"
     inkscape:pageopacity="0"
     inkscape:pageshadow="2"
     inkscape:window-width="1366"
     inkscape:window-height="695"
     id="namedview4"
     showgrid="false"
     inkscape:zoom="1.4055406"
     inkscape:cx="264.63054"
     inkscape:cy="104.10657"
     inkscape:window-x="0"
     inkscape:window-y="27"
     inkscape:window-maximized="1"
     inkscape:current-layer="g10" /><g
     id="g10"
     inkscape:groupmode="layer"
     inkscape:label="gaussian-bm-relaxation-30-unit-scale-6-mean-rmses"
     transform="matrix(1.3333333,0,0,-1.3333333,0,237.45625)"><path
       d="M 0,0 H 287.84027 V 178.09219 H 0 Z"
       style="fill:#ffffff;fill-opacity:1;fill-rule:nonzero;stroke:none"
       id="path12"
       inkscape:connector-curvature="0" /><path
       d="M 41.25,31.578125 H 278.1059 V 173.42813 H 41.25 Z"
       style="fill:#ffffff;fill-opacity:1;fill-rule:nonzero;stroke:none"
       id="path14"
       inkscape:connector-curvature="0" /><text
       transform="matrix(1,0,0,-1,34.296875,17.328125)"
       style="font-variant:normal;font-weight:normal;font-size:10px;font-family:'Libertinus Serif';-inkscape-font-specification:'Libertinus Serif';writing-mode:lr-tb;fill:#000000;fill-opacity:1;fill-rule:nonzero;stroke:none;font-style:normal;font-stretch:normal;"
       id="text18"><tspan
         x="0 5.5599999 8.3400002"
         y="0"
         sodipodi:role="line"
         id="tspan16">0.0</tspan></text>
<text
       transform="matrix(1,0,0,-1,90.7296,17.328125)"
       style="font-variant:normal;font-weight:normal;font-size:10px;font-family:'Libertinus Serif';-inkscape-font-specification:'Libertinus Serif';writing-mode:lr-tb;fill:#000000;fill-opacity:1;fill-rule:nonzero;stroke:none;font-style:normal;font-stretch:normal;"
       id="text22"><tspan
         x="0 5.5599999 11.12 13.9"
         y="0"
         sodipodi:role="line"
         id="tspan20">20.0</tspan></text>
<text
       transform="matrix(1,0,0,-1,149.94357,17.328125)"
       style="font-variant:normal;font-weight:normal;font-size:10px;font-family:'Libertinus Serif';-inkscape-font-specification:'Libertinus Serif';writing-mode:lr-tb;fill:#000000;fill-opacity:1;fill-rule:nonzero;stroke:none;font-style:normal;font-stretch:normal;"
       id="text26"><tspan
         x="0 5.5599999 11.12 13.9"
         y="0"
         sodipodi:role="line"
         id="tspan24">40.0</tspan></text>
<text
       transform="matrix(1,0,0,-1,209.15755,17.328125)"
       style="font-variant:normal;font-weight:normal;font-size:10px;font-family:'Libertinus Serif';-inkscape-font-specification:'Libertinus Serif';writing-mode:lr-tb;fill:#000000;fill-opacity:1;fill-rule:nonzero;stroke:none;font-style:normal;font-stretch:normal;"
       id="text30"><tspan
         x="0 5.5599999 11.12 13.9"
         y="0"
         sodipodi:role="line"
         id="tspan28">60.0</tspan></text>
<text
       transform="matrix(1,0,0,-1,268.37152,17.328125)"
       style="font-variant:normal;font-weight:normal;font-size:10px;font-family:'Libertinus Serif';-inkscape-font-specification:'Libertinus Serif';writing-mode:lr-tb;fill:#000000;fill-opacity:1;fill-rule:nonzero;stroke:none;font-style:normal;font-stretch:normal;"
       id="text34"><tspan
         x="0 5.5599999 11.12 13.9"
         y="0"
         sodipodi:role="line"
         id="tspan32">80.0</tspan></text>
<text
       transform="matrix(1,0,0,-1,140.10764,2.28125)"
       style="font-variant:normal;font-weight:normal;font-size:11px;font-family:'Liberation Sans';-inkscape-font-specification:LiberationSans;writing-mode:lr-tb;fill:#000000;fill-opacity:1;fill-rule:nonzero;stroke:none"
       id="text38"><tspan
         sodipodi:role="line"
         id="tspan36"
         x="0"
         y="0"
         style="-inkscape-font-specification:'Libertinus Serif';font-family:'Libertinus Serif';font-weight:normal;font-style:normal;font-stretch:normal;font-variant:normal">Time / s</tspan></text>
<text
       id="text44"
       style="font-variant:normal;font-weight:normal;font-size:10px;font-family:'Liberation Sans';-inkscape-font-specification:LiberationSans;writing-mode:lr-tb;fill:#000000;fill-opacity:1;fill-rule:nonzero;stroke:none"
       transform="scale(1,-1)"
       x="15.25"
       y="-29.803125"><tspan
         id="tspan42"
         sodipodi:role="line"
         y="-29.803125"
         x="15.25 20.811523"
         style="-inkscape-font-specification:'Libertinus Serif';font-family:'Libertinus Serif';font-weight:normal;font-style:normal;font-stretch:normal;font-variant:normal">10</tspan></text>
<text
       id="text48"
       style="font-variant:normal;font-weight:normal;font-size:7px;font-family:'Liberation Sans';-inkscape-font-specification:LiberationSans;writing-mode:lr-tb;fill:#000000;fill-opacity:1;fill-rule:nonzero;stroke:none"
       transform="scale(1,-1)"
       x="26.650312"
       y="-32.179688"><tspan
         id="tspan46"
         sodipodi:role="line"
         x="26.650312"
         y="-32.179688"
         style="-inkscape-font-specification:'Libertinus Serif';font-family:'Libertinus Serif';font-weight:normal;font-style:normal;font-stretch:normal;font-variant:normal">-1</tspan></text>
<text
       id="text54"
       style="font-variant:normal;font-weight:normal;font-size:10px;font-family:'Liberation Sans';-inkscape-font-specification:LiberationSans;writing-mode:lr-tb;fill:#000000;fill-opacity:1;fill-rule:nonzero;stroke:none"
       transform="scale(1,-1)"
       x="18.25"
       y="-100.65156"><tspan
         id="tspan52"
         sodipodi:role="line"
         y="-100.65156"
         x="18.25 23.811523"
         style="-inkscape-font-specification:'Libertinus Serif';font-family:'Libertinus Serif';font-weight:normal;font-style:normal;font-stretch:normal;font-variant:normal">10</tspan></text>
<text
       id="text58"
       style="font-variant:normal;font-weight:normal;font-size:7px;font-family:'Liberation Sans';-inkscape-font-specification:LiberationSans;writing-mode:lr-tb;fill:#000000;fill-opacity:1;fill-rule:nonzero;stroke:none"
       transform="scale(1,-1)"
       x="29.650312"
       y="-103.02813"><tspan
         id="tspan56"
         y="-103.02813"
         x="29.650312"
         style="-inkscape-font-specification:'Libertinus Serif';font-family:'Libertinus Serif';font-weight:normal;font-style:normal;font-stretch:normal;font-variant:normal">0</tspan></text>
<text
       id="text64"
       style="font-variant:normal;font-weight:normal;font-size:10px;font-family:'Liberation Sans';-inkscape-font-specification:LiberationSans;writing-mode:lr-tb;fill:#000000;fill-opacity:1;fill-rule:nonzero;stroke:none"
       transform="scale(1,-1)"
       x="18.25"
       y="-171.65314"><tspan
         id="tspan62"
         sodipodi:role="line"
         y="-171.65314"
         x="18.25 23.811523"
         style="-inkscape-font-specification:'Libertinus Serif';font-family:'Libertinus Serif';font-weight:normal;font-style:normal;font-stretch:normal;font-variant:normal">10</tspan></text>
<text
       id="text68"
       style="font-variant:normal;font-weight:normal;font-size:7px;font-family:'Liberation Sans';-inkscape-font-specification:LiberationSans;writing-mode:lr-tb;fill:#000000;fill-opacity:1;fill-rule:nonzero;stroke:none"
       transform="scale(1,-1)"
       x="29.650312"
       y="-174.02969"><tspan
         id="tspan66"
         y="-174.02969"
         x="29.650312"
         style="-inkscape-font-specification:'Libertinus Serif';font-family:'Libertinus Serif';font-weight:normal;font-style:normal;font-stretch:normal;font-variant:normal">1</tspan></text>
<text
       transform="matrix(0,1,1,0,7.96875,65.198437)"
       style="font-variant:normal;font-weight:normal;font-size:11px;font-family:'Liberation Sans';-inkscape-font-specification:LiberationSans;writing-mode:lr-tb;fill:#000000;fill-opacity:1;fill-rule:nonzero;stroke:none"
       id="text72"><tspan
         sodipodi:role="line"
         id="tspan70"
         x="0"
         y="0"
         style="-inkscape-font-specification:'Libertinus Serif';font-family:'Libertinus Serif';font-weight:normal;font-style:normal;font-stretch:normal;font-variant:normal">Relative RMSE</tspan></text>
<g
       id="g74"><g
         id="g76"
         clip-path="url(#clipPath80)"><path
           d="m 41.25,162.77482 v -8.46551 l 2.617922,-50.0381 2.617922,-4.90364 2.617922,-2.816121 2.617922,-3.862666 2.617921,-2.237452 2.617922,-3.670968 2.617922,-1.594247 2.617922,-0.554275 2.617922,-1.28643 2.617922,-0.898261 2.617922,-0.02984 2.617922,-0.210331 2.617922,-0.51417 2.617921,-0.658127 2.617922,-0.548948 2.617922,-0.629638 2.617922,-0.763034 2.617922,0.08356 2.617922,-0.222157 2.617922,-0.768508 2.617922,-0.413553 2.617922,-0.908884 2.617918,-0.852651 2.61793,-1.004022 2.61792,-0.609915 2.61792,-0.260596 2.61792,-1.037008 2.61792,-0.786502 2.61792,-0.526056 2.61793,-1.013932 2.61792,0.147191 2.61792,0.01667 2.61792,-0.423146 2.61792,-0.626502 2.61793,-0.136812 2.61792,-0.437626 2.61792,-0.561941 2.61792,-0.575544 2.61792,-0.543834 2.61793,-0.299358 2.61792,-0.615687 2.61792,-0.823507 2.61792,0.209889 2.61792,-0.275251 2.61792,-0.712857 2.61793,-0.02439 2.61792,0.02953 2.61792,-0.01917 2.61792,-0.06239 2.61792,-0.225189 2.61793,-0.0088 2.61792,0.06495 2.61792,0.277967 2.61792,0.373648 2.61792,-0.06854 2.61793,0.407101 2.61792,0.203707 2.61792,0.0897 2.61792,-0.04556 2.61792,-0.254787 2.61792,-0.522844 2.61793,-0.289361 2.61792,-0.107929 2.61792,-0.167329 2.61792,0.08071 2.61792,-0.07789 2.61793,-0.119038 2.61792,-0.07838 2.61792,-0.201769 2.61792,0.119708 2.61792,-0.292301 2.61793,-0.471862 2.61792,-0.33017 2.61792,-0.27175 2.61792,-0.156567 2.61792,0.08674 2.61793,-0.0318 2.61792,-0.393275 2.61792,-0.0232 2.61792,0.03595 2.61792,-0.260555 2.61792,-0.157509 2.61793,0.129137 2.61792,-0.326012 2.61792,-0.667148 2.61792,-0.457715 2.61792,-0.285483 2.61793,-0.05013 2.61792,-0.370744 2.61792,-0.247292 2.61792,-0.247767 2.61792,-0.194159 2.61793,-0.355365 2.61792,-0.04915 2.61792,-0.114711 2.61792,-0.176611 2.61792,-0.307638 2.61792,-0.160709 2.61793,-0.213858 v 7.740207 0 l -2.61793,0.185445 -2.61792,0.17645 -2.61792,0.291455 -2.61792,0.363177 -2.61792,0.246261 -2.61792,0.153866 -2.61793,0.516076 -2.61792,0.435796 -2.61792,0.443811 -2.61792,0.440438 -2.61792,0.400133 -2.61793,0.208685 -2.61792,0.533878 -2.61792,0.843174 -2.61792,0.867312 -2.61792,0.486367 -2.61793,0.0207 -2.61792,0.164195 -2.61792,0.311958 -2.61792,-0.0098 -2.61792,0.07379 -2.61792,0.24857 -2.61793,-0.161939 -2.61792,-0.127888 -2.61792,0.20273 -2.61792,0.319679 -2.61792,0.245324 -2.61793,0.62636 -2.61792,0.09961 -2.61792,-0.202461 -2.61792,0.072 -2.61792,-0.04374 -2.61793,-0.149555 -2.61792,-0.103314 -2.61792,-0.118385 -2.61792,0.07307 -2.61792,-0.02764 -2.61793,0.228912 -2.61792,0.431706 -2.61792,0.36207 -2.61792,-0.11321 -2.61792,-0.195639 -2.61792,-0.05587 -2.61793,-0.246619 -2.61792,0.243353 -2.61792,-0.230488 -2.61792,-0.161967 -2.61792,-0.148476 -2.61793,0.06343 -2.61792,0.09157 -2.61792,0.06919 -2.61792,-0.02116 -2.61792,-0.01418 -2.61793,0.32164 -2.61792,0.835761 -2.61792,0.241158 -2.61792,-0.105811 -2.61792,0.800226 -2.61792,0.535114 -2.61793,0.298409 -2.61792,0.579321 -2.61792,0.945027 -2.61792,0.879785 -2.61792,0.473366 -2.61793,0.375178 -2.61792,0.652975 -2.61792,0.74774 -2.61792,0.74009 -2.61792,0.557783 -2.61793,0.721851 -2.61792,0.695822 -2.61792,0.584754 -2.61792,1.190871 -2.61792,0.443607 -2.61792,0.594704 -2.61793,1.001595 -2.617918,0.720194 -2.617922,0.854384 -2.617922,0.222757 -2.617922,0.841529 -2.617922,0.156921 -2.617922,-0.457974 -2.617922,0.542853 -2.617922,0.452114 -2.617922,0.517702 -2.617921,0.567128 -2.617922,0.548692 -2.617922,0.542706 -2.617922,0.233493 -2.617922,0.448659 -2.617922,0.71874 -2.617922,0.180455 -2.617922,0.901126 -2.617922,2.099134 -2.617921,2.0966 -2.617922,3.30921 -2.617922,2.42946 -2.617922,5.54378 z"
           style="fill:#97a431;fill-opacity:0.2;fill-rule:nonzero;stroke:#000000;stroke-width:0.30000001;stroke-linecap:butt;stroke-linejoin:round;stroke-miterlimit:10;stroke-dasharray:none;stroke-opacity:0.2"
           id="path82"
           inkscape:connector-curvature="0" /></g></g><g
       id="g84"><g
         id="g86"
         clip-path="url(#clipPath90)"><path
           d="m 41.25,160.0914 v -9.1221 l 1.513757,-52.002438 1.513757,-2.062571 1.513757,-3.447974 1.513758,-1.319823 1.513757,-3.900192 1.513757,-1.863995 1.513757,-2.849253 1.513757,-1.891373 1.513757,-1.800671 1.513757,-0.134441 1.513757,-1.189898 1.513758,-0.467854 1.513757,-1.777528 1.513757,-0.5674 1.513757,-0.006 1.513757,0.592122 1.513757,0.391791 1.513757,-0.472141 1.513757,-0.553282 1.513758,-0.589962 1.513757,-0.537943 1.513757,-1.079867 1.513757,-0.37986 1.513757,-0.400991 1.513757,-1.445978 1.513757,-0.495897 1.513757,-0.310123 1.513758,-0.245554 1.513757,0.06928 1.513757,-0.835768 1.513757,-0.699558 1.513757,-0.376272 1.513757,0.09393 1.513757,-0.07211 1.513758,-0.696183 1.513757,-0.274977 1.513757,0.07801 1.513757,0.444147 1.513759,0.03482 1.51376,-0.191627 1.51375,-0.612068 1.51376,-0.613921 1.51376,-0.352226 1.51375,0.366258 1.51376,0.214436 1.51376,-0.456102 1.51376,-1.070539 1.51375,-0.734148 1.51376,-0.485162 1.51376,-0.412325 1.51375,-0.08485 1.51376,-0.515797 1.51376,-0.109174 1.51376,0.26593 1.51375,-0.186904 1.51376,0.374845 1.51376,0.274121 1.51375,-0.166422 1.51376,-0.284676 1.51376,-0.824797 1.51375,-0.742456 1.51376,-0.08759 1.51376,-0.01601 1.51376,-1.0186 1.51375,-0.160422 1.51376,-0.511844 1.51376,-0.695725 1.51375,-0.429299 1.51376,-0.02339 1.51376,-0.156127 1.51376,-0.258777 1.51375,-0.294504 1.51376,-0.323403 1.51376,-0.114899 1.51375,-0.335198 1.51376,-0.375562 1.51376,-0.177459 1.51376,0.22215 1.51375,0.575997 1.51376,0.05104 1.51376,-0.322466 1.51375,-0.348262 1.51376,0.06377 1.51376,0.157645 1.51376,0.158166 1.51375,-0.186555 1.51376,0.154942 1.51376,0.06647 1.51375,7.88e-4 1.51376,-0.178784 1.51376,0.162328 1.51376,-0.03253 1.51375,-0.06813 1.51376,-0.155323 1.51376,0.0015 1.51375,0.06756 1.51376,-0.285219 1.51376,-0.07707 1.51376,-0.267457 1.51375,-0.278023 1.51376,-0.216251 1.51376,0.0049 1.51375,-0.0089 1.51376,0.01344 1.51376,0.196899 1.51376,0.0269 1.51375,-0.0048 1.51376,-0.12733 1.51376,-0.09814 1.51375,0.01153 1.51376,-0.235727 1.51376,-0.185474 1.51376,-0.122779 1.51375,6.06e-4 1.51376,-0.250238 1.51376,-0.13762 1.51375,-0.404552 1.51376,-0.42859 1.51376,-0.384072 1.51375,-0.364941 1.51376,0.07868 1.51376,-0.17077 1.51376,0.02082 1.51375,-0.05944 1.51376,-0.05197 1.51376,0.482654 1.51375,0.131161 1.51376,0.241676 1.51376,0.22533 1.51376,-0.02432 1.51375,0.02273 1.51376,-0.352242 1.51376,-0.02018 1.51375,0.06236 1.51376,-0.0771 1.51376,-0.274132 1.51376,-0.108948 1.51375,0.239474 1.51376,0.100354 1.51376,-0.09329 1.51375,0.122571 1.51376,0.08087 1.51376,0.181055 1.51376,0.175324 1.51375,0.141668 1.51376,0.02424 1.51376,0.348113 1.51375,-0.01831 1.51376,0.200068 v 11.268765 0 l -1.51376,-0.10533 -1.51375,0.02033 -1.51376,-0.150691 -1.51376,-0.01824 -1.51375,-0.145512 -1.51376,-0.205074 -1.51376,-0.154475 -1.51376,-0.06737 -1.51375,-0.085 -1.51376,0.0941 -1.51376,-0.06267 -1.51375,-0.145226 -1.51376,0.08968 -1.51376,0.186892 -1.51376,-0.0366 -1.51375,-0.08518 -1.51376,-0.0098 -1.51376,0.21751 -1.51375,0.01595 -1.51376,0.05572 -1.51376,-0.283036 -1.51376,-0.126448 -1.51375,-0.129517 -1.51376,-0.343718 -1.51376,-0.02802 -1.51375,0.01803 -1.51376,-0.17198 -1.51376,-0.02297 -1.51376,-0.105014 -1.51375,0.426738 -1.51376,0.496643 -1.51376,0.457916 -1.51375,0.446598 -1.51376,0.155415 -1.51376,0.139098 -1.51375,-0.209192 -1.51376,0.105689 -1.51376,0.144598 -1.51376,0.110502 -1.51375,-0.119998 -1.51376,-0.01886 -1.51376,0.142754 -1.51375,0.03988 -1.51376,0.04283 -1.51376,-0.137214 -1.51376,-0.0374 -1.51375,0.04136 -1.51376,0.05757 -1.51376,0.303282 -1.51375,0.16512 -1.51376,0.27423 -1.51376,-0.08799 -1.51376,0.188282 -1.51375,0.0051 -1.51376,0.198791 -1.51376,0.186984 -1.51375,0.166793 -1.51376,0.02847 -1.51376,-0.231093 -1.51376,0.151082 -1.51375,-0.003 -1.51376,-0.02837 -1.51376,-0.252243 -1.51375,0.07337 -1.51376,-0.19606 -1.51376,-0.0081 -1.51376,-0.114666 -1.51375,0.301827 -1.51376,0.08033 -1.51376,-0.120309 -1.51375,-0.585443 -1.51376,-0.213206 -1.51376,-0.03354 -1.51376,0.142411 -1.51375,0.291352 -1.51376,0.18803 -1.51376,0.263877 -1.51375,0.19211 -1.51376,0.269919 -1.51376,0.20453 -1.51376,0.158284 -1.51375,0.468372 -1.51376,0.55404 -1.51376,0.386852 -1.51375,-0.08279 -1.51376,0.658033 -1.51376,0.06314 -1.51376,0.280185 -1.51375,0.46716 -1.51376,0.57907 -1.51376,0.23156 -1.51375,0.03199 -1.51376,-0.307853 -1.51376,-0.301309 -1.51375,0.15017 -1.51376,-0.310586 -1.51376,0.0082 -1.51376,0.354881 -1.51375,0.150269 -1.51376,0.378949 -1.51376,0.397518 -1.51375,0.786042 -1.51376,1.111846 -1.51376,0.274028 -1.51376,-0.242732 -1.51375,-0.275148 -1.51376,0.361543 -1.51376,0.628717 -1.51375,0.468663 -1.51376,0.247721 -1.513759,-0.0073 -1.513757,-0.4081 -1.513757,-0.118263 -1.513757,0.267999 -1.513758,0.589755 -1.513757,0.08477 -1.513757,0.197828 -1.513757,0.588217 -1.513757,0.774682 -1.513757,0.703433 -1.513757,0.14831 -1.513758,0.477493 -1.513757,0.477848 -1.513757,0.567948 -1.513757,1.221864 -1.513757,0.577911 -1.513757,0.547503 -1.513757,1.247446 -1.513757,0.847871 -1.513758,0.353159 -1.513757,0.10554 -1.513757,0.09573 -1.513757,-0.61046 -1.513757,-0.309306 -1.513757,-0.106884 -1.513757,0.401013 -1.513757,1.853325 -1.513758,1.295114 -1.513757,1.3986 -1.513757,-0.0032 -1.513757,1.537981 -1.513757,1.952646 -1.513757,2.165134 -1.513757,1.940315 -1.513757,3.906876 -1.513758,3.21078 -1.513757,2.00781 -1.513757,3.18112 z"
           style="fill:#36ada4;fill-opacity:0.2;fill-rule:nonzero;stroke:#000000;stroke-width:0.30000001;stroke-linecap:butt;stroke-linejoin:round;stroke-miterlimit:10;stroke-dasharray:none;stroke-opacity:0.2"
           id="path92"
           inkscape:connector-curvature="0" /></g></g><g
       id="g94"><g
         id="g96"
         clip-path="url(#clipPath100)"><path
           d="m 41.25,151.04907 v -8.37656 l 1.721733,-41.57575 1.721733,-9.575453 1.721733,-4.642173 1.721733,-0.39634 1.721733,-0.779166 1.721733,-1.20588 1.721733,-0.491144 1.721733,-1.228484 1.721733,-1.960283 1.721733,-1.056661 1.721733,-0.153312 1.721733,-0.207216 1.721734,0.09368 1.721733,0.09168 1.721733,-0.99604 1.721733,-2.30186 1.721733,-1.15459 1.721733,-1.255226 1.721733,-1.387581 1.721733,-1.10203 1.721733,-1.060304 1.721733,-0.511317 1.721733,-0.295634 1.721733,-0.525392 1.721733,-0.420183 1.721733,-0.739295 1.721733,-0.326446 1.721733,-0.04873 1.721733,-0.444734 1.721733,-0.94546 1.721733,-0.9306 1.721733,-1.234934 1.721733,-0.453203 1.721733,-0.806842 1.721737,-0.432091 1.72173,-0.309783 1.72173,-0.37447 1.72174,-0.247786 1.72173,0.15594 1.72173,-0.01172 1.72174,-0.178991 1.72173,-0.598099 1.72173,-0.456082 1.72173,-0.643397 1.72174,-0.271547 1.72173,-0.647855 1.72173,-0.334154 1.72174,0.204379 1.72173,-0.08037 1.72173,0.0769 1.72174,0.01668 1.72173,-0.38125 1.72173,-0.517071 1.72173,0.226715 1.72174,-0.386115 1.72173,-0.153704 1.72173,-0.344954 1.72174,-0.826077 1.72173,-0.780751 1.72173,-0.148376 1.72174,-0.361108 1.72173,-0.145818 1.72173,4.22e-4 1.72173,0.05046 1.72174,-0.622741 1.72173,-0.520023 1.72173,-0.118679 1.72174,-0.379525 1.72173,-0.09144 1.72173,0.719268 1.72174,0.35628 1.72173,-0.170653 1.72173,-0.132468 1.72174,-0.564846 1.72173,0.02209 1.72173,-0.63824 1.72173,-0.685769 1.72174,-0.203512 1.72173,-0.283745 1.72173,-0.335751 1.72174,-0.130773 1.72173,-0.23275 1.72173,-0.07505 1.72173,-0.164555 1.72174,-0.09194 1.72173,0.220973 1.72173,-0.12093 1.72174,-0.148648 1.72173,-0.268107 1.72173,-0.09504 1.72174,0.277734 1.72173,0.142677 1.72173,-0.278062 1.72174,-0.335358 1.72173,0.03372 1.72173,-0.141626 1.72173,-0.479795 1.72174,-0.339288 1.72173,-0.244399 1.72173,-0.126538 1.72174,0.03897 1.72173,-0.32435 1.72173,0.01562 1.72174,0.243838 1.72173,-0.652672 1.72173,-0.483134 1.72173,-0.146969 1.72174,-0.114173 1.72173,0.516086 1.72173,0.277114 1.72174,0.09992 1.72173,0.09702 1.72173,0.292068 1.72174,0.433685 1.72173,0.02959 1.72173,-0.0567 1.72174,-0.04552 1.72173,-0.150642 1.72173,0.09703 1.72173,-0.09662 1.72174,0.101858 1.72173,-0.01203 1.72173,-0.105806 1.72174,0.01046 v 12.357589 0 l -1.72174,-0.249128 -1.72173,-0.266845 -1.72173,-0.391686 -1.72174,-0.30823 -1.72173,-0.276013 -1.72173,-0.400281 -1.72173,-0.140926 -1.72174,-0.198846 -1.72173,-0.09831 -1.72173,-0.179255 -1.72174,-0.394625 -1.72173,-0.375892 -1.72173,-0.212834 -1.72174,-0.211524 -1.72173,-0.62015 -1.72173,-0.532885 -1.72174,0.01258 -1.72173,0.17162 -1.72173,0.441713 -1.72173,0.500206 -1.72174,-0.159525 -1.72173,0.06067 -1.72173,0.345788 -1.72174,0.132934 -1.72173,0.226596 -1.72173,0.102592 -1.72174,0.23539 -1.72173,0.407509 -1.72173,0.246838 -1.72173,0.08721 -1.72174,0.328675 -1.72173,0.350618 -1.72173,-0.01965 -1.72174,-0.07224 -1.72173,0.145467 -1.72173,0.176705 -1.72174,0.144892 -1.72173,0.19187 -1.72173,0.01038 -1.72174,0.108697 -1.72173,0.373109 -1.72173,0.270935 -1.72173,0.342239 -1.72174,0.300752 -1.72173,0.335311 -1.72173,0.313798 -1.72174,0.341885 -1.72173,0.659862 -1.72173,0.463026 -1.72173,0.169175 -1.72174,0.525493 -1.72173,0.309492 -1.72173,0.233709 -1.72174,-0.308756 -1.72173,-0.321333 -1.72173,-0.01299 -1.72174,0.347464 -1.72173,0.08481 -1.72173,0.499377 -1.72174,0.524963 -1.72173,0.164893 -1.72173,0.122271 -1.72173,0.0536 -1.72174,0.246529 -1.72173,0.420321 -1.72173,0.758262 -1.72174,0.783431 -1.72173,0.404544 -1.72173,0.162352 -1.72174,0.307988 -1.72173,0.04129 -1.72173,0.440597 -1.72173,0.503538 -1.72174,0.145537 -1.72173,0.05865 -1.72173,0.0509 -1.72174,-0.122643 -1.72173,0.407234 -1.72173,0.620043 -1.72174,0.366837 -1.72173,0.598116 -1.72173,0.452518 -1.72173,0.752379 -1.72174,0.363675 -1.72173,0.1388 -1.72173,-0.09661 -1.72174,0.354624 -1.72173,0.412048 -1.72173,0.347928 -1.721737,0.373708 -1.721733,0.767895 -1.721733,0.449219 -1.721733,1.029309 -1.721733,0.849824 -1.721733,0.884714 -1.721733,0.256174 -1.721733,0.259486 -1.721733,0.372922 -1.721733,0.434409 -1.721733,0.508836 -1.721733,0.510188 -1.721733,0.506976 -1.721733,0.516638 -1.721733,0.993612 -1.721733,0.523471 -1.721733,0.788939 -1.721733,1.204583 -1.721733,1.465426 -1.721733,2.297455 -1.721733,0.964427 -1.721733,-0.365819 -1.721734,-0.552901 -1.721733,-0.29017 -1.721733,-0.113023 -1.721733,0.89444 -1.721733,1.531772 -1.721733,0.76609 -1.721733,0.690487 -1.721733,0.970427 -1.721733,1.196971 -1.721733,2.051934 -1.721733,3.919426 -1.721733,7.80169 z"
           style="fill:#a48cf4;fill-opacity:0.2;fill-rule:nonzero;stroke:#000000;stroke-width:0.30000001;stroke-linecap:butt;stroke-linejoin:round;stroke-miterlimit:10;stroke-dasharray:none;stroke-opacity:0.2"
           id="path102"
           inkscape:connector-curvature="0" /></g></g><g
       id="g104"><g
         id="g106"
         clip-path="url(#clipPath110)"><path
           d="m 63.277356,94.544574 v 9.152676"
           style="fill:none;stroke:#f77189;stroke-width:1.75;stroke-linecap:round;stroke-linejoin:round;stroke-miterlimit:10;stroke-dasharray:none;stroke-opacity:1"
           id="path112"
           inkscape:connector-curvature="0" /></g></g><g
       id="g114"><g
         id="g116"
         clip-path="url(#clipPath120)"><path
           d="m 152.1591,89.804743 v 9.024199"
           style="fill:none;stroke:#f77189;stroke-width:1.75;stroke-linecap:round;stroke-linejoin:round;stroke-miterlimit:10;stroke-dasharray:none;stroke-opacity:1"
           id="path122"
           inkscape:connector-curvature="0" /></g></g><g
       id="g124"><g
         id="g126"
         clip-path="url(#clipPath130)"><path
           d="m 261.38115,85.241575 v 9.860749"
           style="fill:none;stroke:#f77189;stroke-width:1.75;stroke-linecap:round;stroke-linejoin:round;stroke-miterlimit:10;stroke-dasharray:none;stroke-opacity:1"
           id="path132"
           inkscape:connector-curvature="0" /></g></g><g
       id="g134"><g
         id="g136"
         clip-path="url(#clipPath140)"><g
           id="g142"
           transform="translate(63.277356,99.190654)"><g
             id="g144"><g
               id="g146"
               clip-path="url(#clipPath150)"><path
                 d="m 0,-3.5 c 0.928211,0 1.81853,0.368782 2.474874,1.025126 C 3.131218,-1.81853 3.5,-0.928211 3.5,0 3.5,0.928211 3.131218,1.81853 2.474874,2.474874 1.81853,3.131218 0.928211,3.5 0,3.5 -0.928211,3.5 -1.81853,3.131218 -2.474874,2.474874 -3.131218,1.81853 -3.5,0.928211 -3.5,0 c 0,-0.928211 0.368782,-1.81853 1.025126,-2.474874 C -1.81853,-3.131218 -0.928211,-3.5 0,-3.5 Z"
                 style="fill:#f77189;fill-opacity:1;fill-rule:nonzero;stroke:none"
                 id="path152"
                 inkscape:connector-curvature="0" /></g></g><g
             id="g154"
             transform="translate(88.881745,-4.7215739)"><g
               id="g156"><g
                 id="g158"
                 clip-path="url(#clipPath162)"><path
                   d="m 0,-3.5 c 0.928211,0 1.81853,0.368782 2.474874,1.025126 C 3.131218,-1.81853 3.5,-0.928211 3.5,0 3.5,0.928211 3.131218,1.81853 2.474874,2.474874 1.81853,3.131218 0.928211,3.5 0,3.5 -0.928211,3.5 -1.81853,3.131218 -2.474874,2.474874 -3.131218,1.81853 -3.5,0.928211 -3.5,0 c 0,-0.928211 0.368782,-1.81853 1.025126,-2.474874 C -1.81853,-3.131218 -0.928211,-3.5 0,-3.5 Z"
                   style="fill:#f77189;fill-opacity:1;fill-rule:nonzero;stroke:none"
                   id="path164"
                   inkscape:connector-curvature="0" /></g></g><g
               id="g166"
               transform="translate(109.22205,-4.2221731)"><g
                 id="g168"><g
                   id="g170"
                   clip-path="url(#clipPath174)"><path
                     d="m 0,-3.5 c 0.928211,0 1.81853,0.368782 2.474874,1.025126 C 3.131218,-1.81853 3.5,-0.928211 3.5,0 3.5,0.928211 3.131218,1.81853 2.474874,2.474874 1.81853,3.131218 0.928211,3.5 0,3.5 -0.928211,3.5 -1.81853,3.131218 -2.474874,2.474874 -3.131218,1.81853 -3.5,0.928211 -3.5,0 c 0,-0.928211 0.368782,-1.81853 1.025126,-2.474874 C -1.81853,-3.131218 -0.928211,-3.5 0,-3.5 Z"
                     style="fill:#f77189;fill-opacity:1;fill-rule:nonzero;stroke:none"
                     id="path176"
                     inkscape:connector-curvature="0" /></g></g></g></g></g></g></g><g
       id="g178"><g
         id="g180"
         clip-path="url(#clipPath184)"><path
           d="m 41.25,158.71136 2.617922,-50.6392 2.617922,-5.07444 2.617922,-2.69634 2.617922,-3.63731 2.617921,-2.261589 2.617922,-2.857324 2.617922,-1.204307 2.617922,-0.430769 2.617922,-0.999682 2.617922,-0.625032 2.617922,-0.161921 2.617922,-0.364625 2.617922,-0.51486 2.617921,-0.607021 2.617922,-0.504211 2.617922,-0.560134 2.617922,-0.675052 2.617922,0.240825 2.617922,-0.260856 2.617922,-0.801468 2.617922,-0.354078 2.617922,-0.865467 2.617918,-0.792772 2.61793,-0.978883 2.61792,-0.596476 2.61792,-0.39244 2.61792,-1.096384 2.61792,-0.667204 2.61792,-0.652066 2.61793,-0.873813 2.61792,-0.155153 2.61792,-0.419785 2.61792,-0.563779 2.61792,-0.627656 2.61793,-0.2088 2.61792,-0.454733 2.61792,-0.695108 2.61792,-0.734783 2.61792,-0.555079 2.61793,-0.310802 2.61792,-0.589604 2.61792,-0.781657 2.61792,0.152601 2.61792,-0.232124 2.61792,-0.798443 2.61793,-0.208018 2.61792,0.05059 2.61792,-0.01399 2.61792,-0.07616 2.61792,-0.144681 2.61793,-0.02822 2.61792,0.121816 2.61792,0.208873 2.61792,0.298781 2.61792,-0.123391 2.61793,0.349627 2.61792,0.149842 2.61792,0.154479 2.61792,0.04428 2.61792,-0.339124 2.61792,-0.48808 2.61793,-0.290997 2.61792,-0.04483 2.61792,-0.13416 2.61792,0.08372 2.61792,-0.02063 2.61793,0.01822 2.61792,-0.0123 2.61792,-0.107868 2.61792,0.17963 2.61792,-0.212232 2.61793,-0.546839 2.61792,-0.290395 2.61792,-0.301243 2.61792,-0.165232 2.61792,0.151838 2.61793,0.03875 2.61792,-0.324144 2.61792,-0.03192 2.61792,0.01413 2.61792,-0.270464 2.61792,-0.166573 2.61793,0.01398 2.61792,-0.366418 2.61792,-0.781442 2.61792,-0.655854 2.61792,-0.411291 2.61793,-0.107728 2.61792,-0.394051 2.61792,-0.339976 2.61792,-0.340999 2.61792,-0.286858 2.61793,-0.437947 2.61792,-0.09979 1.50561,-0.106037"
           style="fill:none;stroke:#97a431;stroke-width:1.75;stroke-linecap:butt;stroke-linejoin:round;stroke-miterlimit:10;stroke-dasharray:6, 6;stroke-dashoffset:0;stroke-opacity:1"
           id="path186"
           inkscape:connector-curvature="0" /></g></g><g
       id="g188"><g
         id="g190"
         clip-path="url(#clipPath194)"><path
           d="m 41.25,155.59359 1.513757,-51.55784 4.541272,-7.417526 1.513757,-3.847101 1.513757,-1.856747 1.513757,-2.487726 1.513757,-1.923079 1.513757,-1.580114 1.513757,-0.06238 1.513757,-1.339242 1.513758,-0.888072 1.513757,-1.855208 1.513757,-0.469956 1.513757,0.105387 3.027514,0.866475 3.027514,-0.544724 1.513758,-0.47315 1.513757,-0.774707 1.513757,-1.196591 3.027514,-0.945981 1.513757,-1.307985 1.513757,-0.584662 3.027515,-0.755672 1.513757,-0.0655 3.027514,-1.434075 1.513757,-0.505647 3.027514,-0.155611 1.513758,-0.61435 1.513757,-0.284254 1.513757,0.08528 1.513757,0.442136 1.513759,-0.02246 1.51376,-0.217032 4.54127,-1.463328 3.02751,0.501317 1.51376,-0.365143 1.51376,-1.087045 1.51375,-0.73934 3.02752,-0.856709 1.51375,-0.132304 1.51376,-0.456065 1.51376,-0.06105 1.51376,0.286081 1.51375,-0.195652 3.02752,0.629481 1.51375,-0.110287 1.51376,-0.293718 3.02751,-1.291316 1.51376,-0.190337 1.51376,-0.04491 1.51376,-0.770424 1.51375,-0.02247 1.51376,-0.459681 1.51376,-0.6548 1.51375,-0.442503 1.51376,-0.05991 3.02752,-0.454904 7.56878,-1.29349 1.51376,-0.05471 1.51376,0.214156 1.51375,0.594051 1.51376,0.09567 3.02751,-0.54957 9.08255,0.531881 1.51375,-0.01797 1.51376,-0.16782 1.51376,0.198228 3.02751,-0.115428 3.02752,-0.297402 1.51375,0.05356 1.51376,-0.222476 1.51376,0.01453 4.54127,-0.765498 4.54127,-0.0222 1.51376,0.198771 3.02751,-0.04465 1.51376,-0.152291 4.54127,-0.124496 3.02752,-0.276316 1.51375,0.117875 4.54127,-0.805557 4.54127,-1.257144 1.51376,0.06827 1.51376,-0.04935 1.51376,0.08909 3.02751,-0.05394 1.51376,0.416452 3.02751,0.286968 1.51376,0.251173 3.02751,-0.0047 1.51376,-0.256164 4.54127,0.09904 1.51376,-0.220358 1.51376,-0.07858 1.51375,0.191054 1.51376,0.05146 1.51376,-0.08306 4.54127,0.350447 3.02751,0.367361 1.51376,0.003 1.51376,0.241357 1.51375,-0.0018 1.51376,0.151704 v 0"
           style="fill:none;stroke:#36ada4;stroke-width:1.75;stroke-linecap:butt;stroke-linejoin:round;stroke-miterlimit:10;stroke-dasharray:1, 3;stroke-dashoffset:0;stroke-opacity:1"
           id="path196"
           inkscape:connector-curvature="0" /></g></g><g
       id="g198"><g
         id="g200"
         clip-path="url(#clipPath204)"><path
           d="m 41.25,147.02345 1.721733,-41.60998 1.721733,-8.58962 1.721733,-4.216251 1.721733,-1.400177 1.721733,-0.967732 1.721733,-0.999506 1.721733,-0.503655 1.721733,-1.025571 1.721733,-1.715579 1.721733,-1.014164 1.721733,-0.02371 1.721733,0.01603 1.721734,0.353539 1.721733,0.271674 1.721733,-0.984907 1.721733,-2.286071 1.721733,-1.333323 1.721733,-1.241353 1.721733,-0.996356 1.721733,-0.794325 1.721733,-1.046876 1.721733,-0.55167 1.721733,-0.429609 1.721733,-0.438486 1.721733,-0.486008 1.721733,-0.566348 1.721733,-0.391206 1.721733,-0.172028 1.721733,-0.352205 1.721733,-0.93012 1.721733,-0.913948 1.721733,-1.135847 1.721733,-0.417462 1.721733,-0.789497 1.721737,-0.415308 1.72173,-0.300615 1.72173,-0.403689 1.72174,-0.326281 1.72173,0.13882 1.72173,-0.08854 1.72174,-0.316675 1.72173,-0.670555 1.72173,-0.42005 1.72173,-0.67055 1.72174,-0.272199 1.72173,-0.667178 1.72173,-0.392145 1.72174,0.134735 1.72173,-0.02392 1.72173,0.0036 1.72174,-0.06401 1.72173,-0.488185 1.72173,-0.497655 1.72173,0.08551 1.72174,-0.362628 1.72173,-0.15341 1.72173,-0.356738 1.72174,-0.798325 1.72173,-0.762955 1.72173,-0.326259 1.72174,-0.306868 1.72173,-0.07633 1.72173,-0.06169 1.72173,-0.08628 1.72174,-0.553265 1.72173,-0.473065 1.72173,-0.07201 1.72174,-0.398268 1.72173,-0.07252 1.72173,0.510447 1.72174,0.325485 1.72173,-0.169743 1.72173,-0.291715 1.72174,-0.553686 1.72173,-0.04742 1.72173,-0.553972 1.72173,-0.647496 1.72174,-0.306551 1.72173,-0.297047 1.72173,-0.36506 1.72174,-0.229048 1.72173,-0.278972 1.72173,-0.149231 1.72173,-0.273634 1.72174,-0.127634 1.72173,0.09571 1.72173,-0.137601 1.72174,-0.121913 1.72173,-0.210731 1.72173,-0.136332 1.72174,0.125062 1.72173,0.08751 1.72173,-0.299872 1.72174,-0.359769 1.72173,-0.03627 1.72173,-0.207401 1.72173,-0.435634 1.72174,-0.262012 1.72173,-0.142619 1.72173,-0.192696 1.72174,-0.07038 1.72173,-0.319668 1.72173,-0.02662 1.72174,0.2082 1.72173,-0.575805 1.72173,-0.470032 1.72173,-0.169149 1.72174,-0.04503 1.72173,0.51836 1.72173,0.438599 1.72174,0.166587 1.72173,0.12125 1.72173,0.345707 1.72174,0.407205 1.72173,0.08913 1.72173,0.01206 1.72174,0.105603 1.72173,0.0075 1.72173,0.244164 1.72173,0.114471 1.72174,0.18424 1.72173,0.146451 1.72173,0.102717 1.72174,0.130994"
           style="fill:none;stroke:#a48cf4;stroke-width:1.75;stroke-linecap:round;stroke-linejoin:round;stroke-miterlimit:10;stroke-dasharray:none;stroke-opacity:1"
           id="path206"
           inkscape:connector-curvature="0" /></g></g><g
       id="g208"><path
         d="M 41.25,173.42813 H 278.1059"
         style="fill:none;stroke:#262626;stroke-width:1.25;stroke-linecap:square;stroke-linejoin:miter;stroke-miterlimit:10;stroke-dasharray:none;stroke-opacity:1"
         id="path210"
         inkscape:connector-curvature="0" /><path
         d="M 278.1059,31.578125 V 173.42813"
         style="fill:none;stroke:#262626;stroke-width:1.25;stroke-linecap:square;stroke-linejoin:miter;stroke-miterlimit:10;stroke-dasharray:none;stroke-opacity:1"
         id="path212"
         inkscape:connector-curvature="0" /><path
         d="M 41.25,31.578125 H 278.1059"
         style="fill:none;stroke:#262626;stroke-width:1.25;stroke-linecap:square;stroke-linejoin:miter;stroke-miterlimit:10;stroke-dasharray:none;stroke-opacity:1"
         id="path214"
         inkscape:connector-curvature="0" /><path
         d="M 41.25,31.578125 V 173.42813"
         style="fill:none;stroke:#262626;stroke-width:1.25;stroke-linecap:square;stroke-linejoin:miter;stroke-miterlimit:10;stroke-dasharray:none;stroke-opacity:1"
         id="path216"
         inkscape:connector-curvature="0" /><path
         d="m 144.74652,157.17812 c 0.92821,0 1.81853,0.36879 2.47488,1.02513 0.65634,0.65634 1.02512,1.54666 1.02512,2.47487 0,0.92822 -0.36878,1.81853 -1.02512,2.47488 -0.65635,0.65634 -1.54667,1.02512 -2.47488,1.02512 -0.92821,0 -1.81853,-0.36878 -2.47487,-1.02512 -0.65634,-0.65635 -1.02513,-1.54666 -1.02513,-2.47488 0,-0.92821 0.36879,-1.81853 1.02513,-2.47487 0.65634,-0.65634 1.54666,-1.02513 2.47487,-1.02513 z"
         style="fill:#f77189;fill-opacity:1;fill-rule:nonzero;stroke:none"
         id="path218"
         inkscape:connector-curvature="0" /><text
         transform="matrix(1,0,0,-1,162.74652,157.17812)"
         style="font-variant:normal;font-weight:normal;font-size:10px;font-family:'Libertinus Serif';-inkscape-font-specification:'Libertinus Serif';writing-mode:lr-tb;fill:#000000;fill-opacity:1;fill-rule:nonzero;stroke:none;font-style:normal;font-stretch:normal;"
         id="text222"><tspan
           sodipodi:role="line"
           id="tspan220"
           x="0"
           y="0">AIS</tspan></text>
<path
         d="m 134.74652,146.35 h 20"
         style="fill:none;stroke:#97a431;stroke-width:1.75;stroke-linecap:butt;stroke-linejoin:round;stroke-miterlimit:10;stroke-dasharray:6, 6;stroke-dashoffset:0;stroke-opacity:1"
         id="path224"
         inkscape:connector-curvature="0" /><text
         transform="matrix(1,0,0,-1,162.74652,142.85)"
         style="font-variant:normal;font-weight:normal;font-size:10px;font-family:'Libertinus Serif';-inkscape-font-specification:'Libertinus Serif';writing-mode:lr-tb;fill:#000000;fill-opacity:1;fill-rule:nonzero;stroke:none;font-style:normal;font-stretch:normal;"
         id="text228"><tspan
           sodipodi:role="line"
           id="tspan226"
           x="0"
           y="0">ST</tspan></text>
<path
         d="m 198.87152,160.67812 h 20"
         style="fill:none;stroke:#36ada4;stroke-width:1.75;stroke-linecap:butt;stroke-linejoin:round;stroke-miterlimit:10;stroke-dasharray:1, 3;stroke-dashoffset:0;stroke-opacity:1"
         id="path230"
         inkscape:connector-curvature="0" /><text
         transform="matrix(1,0,0,-1,226.87152,157.17812)"
         style="font-variant:normal;font-weight:normal;font-size:10px;font-family:'Libertinus Serif';-inkscape-font-specification:'Libertinus Serif';writing-mode:lr-tb;fill:#000000;fill-opacity:1;fill-rule:nonzero;stroke:none;font-style:normal;font-stretch:normal;"
         id="text234"><tspan
           sodipodi:role="line"
           id="tspan232"
           x="0"
           y="0">Gibbs CT</tspan></text>
<path
         d="m 198.87152,146.35 h 20"
         style="fill:none;stroke:#a48cf4;stroke-width:1.75;stroke-linecap:round;stroke-linejoin:round;stroke-miterlimit:10;stroke-dasharray:none;stroke-opacity:1"
         id="path236"
         inkscape:connector-curvature="0" /><text
         transform="matrix(1,0,0,-1,226.87152,142.85)"
         style="font-variant:normal;font-weight:normal;font-size:10px;font-family:'Libertinus Serif';-inkscape-font-specification:'Libertinus Serif';writing-mode:lr-tb;fill:#000000;fill-opacity:1;fill-rule:nonzero;stroke:none;font-style:normal;font-stretch:normal;"
         id="text240"><tspan
           sodipodi:role="line"
           id="tspan238"
           x="0"
           y="0">CT HMC</tspan></text>
</g></g></svg>